<svg width="164" height="20" viewBox="0 0 164 20" fill="none" xmlns="http://www.w3.org/2000/svg">
<path d="M112.683 19.9965C113.966 19.9965 115.007 18.956 115.007 17.6721V9.29772L119.193 14.8784C119.963 15.9053 121.42 16.1136 122.447 15.3432C123.474 14.5729 123.682 13.1161 122.912 12.0892L114.542 0.930119C113.942 0.130222 112.896 -0.197545 111.948 0.119781C110.998 0.436199 110.358 1.32417 110.358 2.32472V17.6721C110.358 18.9559 111.399 19.9965 112.683 19.9965Z" fill="#F2353F"/>
<path d="M4.64866 17.6718V2.32482C4.64866 1.04099 3.60794 0.000488281 2.32433 0.000488281C1.04073 0.000488281 0 1.04099 0 2.32482V17.6718C0 18.9556 1.04073 19.9961 2.32433 19.9961C3.60794 19.9961 4.64866 18.9556 4.64866 17.6718Z" fill="#F2353F"/>
<path d="M34.6336 19.5949C35.6957 18.8735 35.9721 17.4281 35.251 16.3662L31.7584 11.2223C31.0372 10.16 29.5916 9.88352 28.5297 10.6049C27.4677 11.3262 27.1912 12.7717 27.9123 13.8335L31.405 18.9775C31.8546 19.6398 32.5857 19.9966 33.33 19.9966C33.7795 19.9966 34.2339 19.8663 34.6336 19.5949Z" fill="#F2353F"/>
<path d="M22.0909 19.9961C20.8073 19.9961 19.7666 18.9556 19.7666 17.6718V2.32482C19.7666 1.04099 20.8073 0.000488281 22.0909 0.000488281C23.3745 0.000488281 24.4153 1.04099 24.4153 2.32482V17.6718C24.4153 18.9556 23.3745 19.9961 22.0909 19.9961Z" fill="#F2353F"/>
<path d="M51.8461 17.6513C51.8461 16.3675 50.8054 15.327 49.5218 15.327C46.5778 15.327 44.1828 12.9319 44.1828 9.98785C44.1828 7.0443 46.5778 4.64915 49.5218 4.64915C50.8054 4.64915 51.8461 3.60865 51.8461 2.32482C51.8461 1.04099 50.8054 0.000488281 49.5218 0.000488281C44.0146 0.000488281 39.5342 4.48073 39.5342 9.98785C39.5342 15.495 44.0146 19.9757 49.5218 19.9757C50.8054 19.9757 51.8461 18.9352 51.8461 17.6513Z" fill="#F2353F"/>
<path d="M161.447 19.9961C160.818 19.9961 160.192 19.7423 159.733 19.2425L145.666 3.89557C144.799 2.94904 144.863 1.47863 145.809 0.611544C146.756 -0.256449 148.226 -0.191531 149.094 0.754091L163.16 16.101C164.028 17.0476 163.964 18.518 163.017 19.3851C162.571 19.7941 162.008 19.9961 161.447 19.9961Z" fill="#F2353F"/>
<path d="M99.5375 17.6513C99.5375 16.3675 98.4968 15.327 97.2132 15.327C94.2692 15.327 91.8743 12.9319 91.8743 9.98785C91.8743 7.0443 94.2692 4.64915 97.2132 4.64915C98.4968 4.64915 99.5375 3.60865 99.5375 2.32482C99.5375 1.04099 98.4968 0.000488281 97.2132 0.000488281C91.7061 0.000488281 87.2256 4.48073 87.2256 9.98785C87.2256 15.495 91.7061 19.9757 97.2132 19.9757C98.4968 19.9757 99.5375 18.9352 99.5375 17.6513Z" fill="#F2353F"/>
<path d="M140.961 17.6718V2.32482C140.961 1.04099 139.92 0.000488281 138.637 0.000488281C137.353 0.000488281 136.312 1.04099 136.312 2.32482V17.6718C136.312 18.9556 137.353 19.9961 138.637 19.9961C139.92 19.9961 140.961 18.9556 140.961 17.6718Z" fill="#F2353F"/>
<path d="M64.9982 19.9965C66.2818 19.9965 67.3225 18.956 67.3225 17.6721V9.29772L71.5083 14.8784C72.2785 15.9053 73.7357 16.1136 74.7624 15.3432C75.7893 14.5729 75.9974 13.1161 75.2273 12.0892L66.8576 0.930119C66.2575 0.130222 65.2115 -0.197545 64.2632 0.119781C63.3139 0.436199 62.6738 1.32417 62.6738 2.32472V17.6721C62.6738 18.9559 63.7146 19.9965 64.9982 19.9965Z" fill="#F2353F"/>
<path d="M129.414 19.9999C128.13 19.9987 127.09 18.9572 127.091 17.6734L127.099 9.29901L122.908 14.8758C122.137 15.902 120.68 16.1091 119.654 15.3377C118.628 14.5664 118.421 13.1094 119.192 12.0833L127.572 0.931839C128.173 0.13249 129.219 -0.194321 130.167 0.123871C131.116 0.441156 131.755 1.32971 131.754 2.33026L131.74 17.6777C131.739 18.9615 130.697 20.001 129.414 19.9999Z" fill="#5D626A"/>
<path d="M30.2549 14.814C33.7979 14.1639 36.3695 11.0747 36.3695 7.46831C36.3695 3.35034 33.0194 0.000488281 28.9014 0.000488281H22.0909C20.8073 0.000488281 19.7666 1.04099 19.7666 2.32482C19.7666 3.60865 20.8073 4.64915 22.0909 4.64915H28.9014C30.456 4.64915 31.7208 5.91392 31.7208 7.46831C31.7208 8.83023 30.7516 9.99648 29.416 10.2416C28.1533 10.4731 27.3175 11.6848 27.5493 12.9473C27.7549 14.0681 28.7325 14.8526 29.8327 14.8526C29.9721 14.8526 30.1131 14.8399 30.2549 14.814Z" fill="#5D626A"/>
<path d="M149.094 19.2423L163.16 3.89539C164.028 2.94886 163.964 1.47845 163.017 0.611365C162.071 -0.256174 160.601 -0.19171 159.733 0.753911L145.666 16.1009C144.799 17.0474 144.863 18.5178 145.809 19.3849C146.256 19.7939 146.818 19.9959 147.379 19.9959C148.008 19.9959 148.635 19.7422 149.094 19.2423Z" fill="#5D626A"/>
<path d="M107.202 9.98785C107.202 4.48073 102.721 0.000488281 97.214 0.000488281C95.9304 0.000488281 94.8896 1.04099 94.8896 2.32482C94.8896 3.60865 95.9304 4.64915 97.214 4.64915C100.158 4.64915 102.553 7.0443 102.553 9.98785C102.553 12.9319 100.158 15.327 97.214 15.327C95.9304 15.327 94.8896 16.3675 94.8896 17.6513C94.8896 18.9352 95.9304 19.9757 97.214 19.9757C102.721 19.9757 107.202 15.495 107.202 9.98785Z" fill="#5D626A"/>
<path d="M59.5094 9.98785C59.5094 4.48073 55.0289 0.000488281 49.5216 0.000488281C48.238 0.000488281 47.1973 1.04099 47.1973 2.32482C47.1973 3.60865 48.238 4.64915 49.5216 4.64915C52.4656 4.64915 54.8607 7.0443 54.8607 9.98785C54.8607 12.9319 52.4656 15.327 49.5216 15.327C48.238 15.327 47.1973 16.3675 47.1973 17.6513C47.1973 18.9352 48.238 19.9757 49.5216 19.9757C55.0289 19.9757 59.5094 15.495 59.5094 9.98785Z" fill="#5D626A"/>
<path d="M16.6029 7.46831C16.6029 3.35034 13.2526 0.000488281 9.13458 0.000488281H2.32433C1.04073 0.000488281 0 1.04099 0 2.32482C0 3.60865 1.04073 4.64915 2.32433 4.64915H9.13458C10.6894 4.64915 11.9542 5.91392 11.9542 7.46831C11.9542 9.02316 10.6894 10.2879 9.13458 10.2879H2.32433C1.04073 10.2879 0 11.3284 0 12.6123C0 13.8961 1.04073 14.9366 2.32433 14.9366H9.13458C13.2526 14.9366 16.6029 11.5863 16.6029 7.46831Z" fill="#5D626A"/>
<path d="M81.7281 19.9999C80.4445 19.9987 79.4048 18.9572 79.4059 17.6734L79.4136 9.29901L75.2227 14.8758C74.4516 15.902 72.9941 16.1091 71.9682 15.3377C70.942 14.5664 70.7352 13.1094 71.5063 12.0833L79.8861 0.931839C80.487 0.13249 81.5332 -0.194321 82.4813 0.123871C83.4303 0.441156 84.0695 1.32971 84.0686 2.33026L84.0546 17.6777C84.0534 18.9615 83.0117 20.001 81.7281 19.9999Z" fill="#5D626A"/>
<path d="M122.911 12.089H122.912L121.053 9.60986L119.193 12.089H119.195C118.903 12.4774 118.729 12.9583 118.729 13.4811C118.729 14.7648 119.769 15.8055 121.053 15.8055C122.337 15.8055 123.377 14.7648 123.377 13.4811C123.377 12.9583 123.202 12.4774 122.911 12.089Z" fill="#1F2C37"/>
<path d="M31.7587 11.2226C30.8852 9.88851 28.8534 9.88549 27.9623 11.156C27.4048 11.8966 27.3632 12.9751 27.8645 13.7546C29.1037 15.749 31.8432 14.55 33.3053 13.5005L31.7587 11.2226Z" fill="#1F2C37"/>
<path d="M2.32433 4.64915H4.64866V2.32482C4.64866 1.04099 3.60794 0.000488281 2.32433 0.000488281C1.04073 0.000488281 0 1.04099 0 2.32482C0 3.60865 1.04073 4.64915 2.32433 4.64915Z" fill="#1F2C37"/>
<path d="M2.32433 14.9367H4.64866V10.2881H2.32433C1.04073 10.2881 0 11.3286 0 12.6124C0 13.8962 1.04073 14.9367 2.32433 14.9367Z" fill="#1F2C37"/>
<path d="M154.413 13.4385L157.566 9.9983L154.413 6.55811L151.26 9.9983L154.413 13.4385Z" fill="#1F2C37"/>
<path d="M49.5216 4.64915C50.8053 4.64915 51.8459 3.60851 51.8459 2.32482C51.8459 1.04113 50.8053 0.000488281 49.5216 0.000488281C48.2379 0.000488281 47.1973 1.04113 47.1973 2.32482C47.1973 3.60851 48.2379 4.64915 49.5216 4.64915Z" fill="#1F2C37"/>
<path d="M49.5216 19.9758C50.8053 19.9758 51.8459 18.9352 51.8459 17.6515C51.8459 16.3678 50.8053 15.3271 49.5216 15.3271C48.2379 15.3271 47.1973 16.3678 47.1973 17.6515C47.1973 18.9352 48.2379 19.9758 49.5216 19.9758Z" fill="#1F2C37"/>
<path d="M97.214 4.64915C98.4977 4.64915 99.5383 3.60851 99.5383 2.32482C99.5383 1.04113 98.4977 0.000488281 97.214 0.000488281C95.9303 0.000488281 94.8896 1.04113 94.8896 2.32482C94.8896 3.60851 95.9303 4.64915 97.214 4.64915Z" fill="#1F2C37"/>
<path d="M97.214 19.9758C98.4977 19.9758 99.5383 18.9352 99.5383 17.6515C99.5383 16.3678 98.4977 15.3271 97.214 15.3271C95.9303 15.3271 94.8896 16.3678 94.8896 17.6515C94.8896 18.9352 95.9303 19.9758 97.214 19.9758Z" fill="#1F2C37"/>
<path d="M22.0909 4.64915H24.4153V2.32482C24.4153 1.04099 23.3745 0.000488281 22.0909 0.000488281C20.8073 0.000488281 19.7666 1.04099 19.7666 2.32482C19.7666 3.60865 20.8073 4.64915 22.0909 4.64915Z" fill="#1F2C37"/>
<path d="M75.2256 12.089H75.2267L73.3672 9.60986L71.5078 12.089H71.5091C71.2177 12.4774 71.043 12.9583 71.043 13.4811C71.043 14.7648 72.0836 15.8055 73.3673 15.8055C74.651 15.8055 75.6917 14.7648 75.6917 13.4811C75.6917 12.9583 75.5169 12.4774 75.2256 12.089Z" fill="#1F2C37"/>
</svg>
