<svg width="164" height="20" viewBox="0 0 164 20" fill="none" xmlns="http://www.w3.org/2000/svg">
<path d="M112.683 19.9965C113.967 19.9965 115.007 18.956 115.007 17.6721V9.29772L119.193 14.8784C119.963 15.9053 121.421 16.1136 122.447 15.3432C123.474 14.5729 123.682 13.1161 122.912 12.0892L114.542 0.930119C113.942 0.130222 112.896 -0.197545 111.948 0.119781C110.999 0.436199 110.359 1.32417 110.359 2.32472V17.6721C110.359 18.9559 111.399 19.9965 112.683 19.9965Z" fill="#5D626A"/>
<path d="M4.64866 17.672V2.32506C4.64866 1.04123 3.60794 0.000732422 2.32433 0.000732422C1.04073 0.000732422 0 1.04123 0 2.32506V17.672C0 18.9558 1.04073 19.9963 2.32433 19.9963C3.60794 19.9963 4.64866 18.9558 4.64866 17.672Z" fill="#5D626A"/>
<path d="M34.6341 19.5951C35.6962 18.8738 35.9726 17.4283 35.2515 16.3665L31.7589 11.2225C31.0377 10.1602 29.5921 9.88377 28.5302 10.6051C27.4682 11.3265 27.1917 12.7719 27.9128 13.8338L31.4055 18.9777C31.8551 19.6401 32.5862 19.9969 33.3305 19.9969C33.78 19.9969 34.2344 19.8666 34.6341 19.5951Z" fill="#5D626A"/>
<path d="M22.0912 19.9963C20.8076 19.9963 19.7668 18.9558 19.7668 17.672V2.32506C19.7668 1.04123 20.8076 0.000732422 22.0912 0.000732422C23.3748 0.000732422 24.4155 1.04123 24.4155 2.32506V17.672C24.4155 18.9558 23.3748 19.9963 22.0912 19.9963Z" fill="#5D626A"/>
<path d="M51.8461 17.6516C51.8461 16.3678 50.8054 15.3273 49.5218 15.3273C46.5778 15.3273 44.1828 12.9321 44.1828 9.9881C44.1828 7.04455 46.5778 4.6494 49.5218 4.6494C50.8054 4.6494 51.8461 3.60889 51.8461 2.32506C51.8461 1.04123 50.8054 0.000732422 49.5218 0.000732422C44.0146 0.000732422 39.5342 4.48097 39.5342 9.9881C39.5342 15.4952 44.0146 19.9759 49.5218 19.9759C50.8054 19.9759 51.8461 18.9354 51.8461 17.6516Z" fill="#5D626A"/>
<path d="M161.447 19.9964C160.818 19.9964 160.192 19.7426 159.733 19.2428L145.666 3.89582C144.799 2.94929 144.863 1.47887 145.809 0.611788C146.756 -0.256205 148.226 -0.191287 149.093 0.754335L163.16 16.1013C164.027 17.0478 163.963 18.5182 163.017 19.3853C162.571 19.7943 162.008 19.9964 161.447 19.9964Z" fill="#5D626A"/>
<path d="M99.538 17.6516C99.538 16.3678 98.4973 15.3273 97.2137 15.3273C94.2697 15.3273 91.8747 12.9321 91.8747 9.9881C91.8747 7.04455 94.2697 4.6494 97.2137 4.6494C98.4973 4.6494 99.538 3.60889 99.538 2.32506C99.538 1.04123 98.4973 0.000732422 97.2137 0.000732422C91.7065 0.000732422 87.2261 4.48097 87.2261 9.9881C87.2261 15.4952 91.7065 19.9759 97.2137 19.9759C98.4973 19.9759 99.538 18.9354 99.538 17.6516Z" fill="#5D626A"/>
<path d="M140.962 17.672V2.32506C140.962 1.04123 139.921 0.000732422 138.637 0.000732422C137.354 0.000732422 136.313 1.04123 136.313 2.32506V17.672C136.313 18.9558 137.354 19.9963 138.637 19.9963C139.921 19.9963 140.962 18.9558 140.962 17.672Z" fill="#5D626A"/>
<path d="M64.9982 19.9965C66.2818 19.9965 67.3225 18.956 67.3225 17.6721V9.29772L71.5083 14.8784C72.2785 15.9053 73.7357 16.1136 74.7624 15.3432C75.7893 14.5729 75.9974 13.1161 75.2273 12.0892L66.8576 0.930119C66.2575 0.130222 65.2115 -0.197545 64.2632 0.119781C63.3139 0.436199 62.6738 1.32417 62.6738 2.32472V17.6721C62.6738 18.9559 63.7146 19.9965 64.9982 19.9965Z" fill="#5D626A"/>
<path d="M129.413 20.0004C128.13 19.9992 127.09 18.9577 127.091 17.6739L127.099 9.29949L122.908 14.8763C122.137 15.9025 120.679 16.1096 119.653 15.3382C118.627 14.5669 118.42 13.1099 119.192 12.0837L127.571 0.932327C128.172 0.132978 129.219 -0.193833 130.167 0.124359C131.116 0.441644 131.755 1.3302 131.754 2.33075L131.74 17.6781C131.739 18.962 130.697 20.0015 129.413 20.0004Z" fill="#F2353F"/>
<path d="M30.2552 14.8145C33.7982 14.1644 36.3697 11.0751 36.3697 7.4688C36.3697 3.35083 33.0196 0.000976562 28.9017 0.000976562H22.0912C20.8076 0.000976562 19.7668 1.04148 19.7668 2.32531C19.7668 3.60914 20.8076 4.64964 22.0912 4.64964H28.9017C30.4563 4.64964 31.721 5.9144 31.721 7.4688C31.721 8.83071 30.7518 9.99697 29.4162 10.2421C28.1535 10.4736 27.3177 11.6853 27.5495 12.9478C27.7551 14.0686 28.7328 14.8531 29.833 14.8531C29.9723 14.8531 30.1133 14.8404 30.2552 14.8145Z" fill="#F2353F"/>
<path d="M149.093 19.2428L163.16 3.89588C164.027 2.94935 163.963 1.47894 163.017 0.611853C162.071 -0.255686 160.601 -0.191222 159.733 0.7544L145.666 16.1013C144.799 17.0479 144.863 18.5183 145.809 19.3854C146.255 19.7944 146.818 19.9964 147.379 19.9964C148.008 19.9964 148.635 19.7426 149.093 19.2428Z" fill="#F2353F"/>
<path d="M107.201 9.98834C107.201 4.48122 102.721 0.000976562 97.2137 0.000976562C95.9301 0.000976562 94.8894 1.04148 94.8894 2.32531C94.8894 3.60914 95.9301 4.64964 97.2137 4.64964C100.158 4.64964 102.553 7.04479 102.553 9.98834C102.553 12.9323 100.158 15.3275 97.2137 15.3275C95.9301 15.3275 94.8894 16.368 94.8894 17.6518C94.8894 18.9357 95.9301 19.9762 97.2137 19.9762C102.721 19.9762 107.201 15.4955 107.201 9.98834Z" fill="#F2353F"/>
<path d="M59.5097 9.98834C59.5097 4.48122 55.0292 0.000976562 49.5218 0.000976562C48.2382 0.000976562 47.1975 1.04148 47.1975 2.32531C47.1975 3.60914 48.2382 4.64964 49.5218 4.64964C52.4658 4.64964 54.861 7.04479 54.861 9.98834C54.861 12.9323 52.4658 15.3275 49.5218 15.3275C48.2382 15.3275 47.1975 16.368 47.1975 17.6518C47.1975 18.9357 48.2382 19.9762 49.5218 19.9762C55.0292 19.9762 59.5097 15.4955 59.5097 9.98834Z" fill="#F2353F"/>
<path d="M16.6029 7.46856C16.6029 3.35058 13.2526 0.000732422 9.13458 0.000732422H2.32433C1.04073 0.000732422 0 1.04123 0 2.32506C0 3.60889 1.04073 4.6494 2.32433 4.6494H9.13458C10.6894 4.6494 11.9542 5.91416 11.9542 7.46856C11.9542 9.02341 10.6894 10.2882 9.13458 10.2882H2.32433C1.04073 10.2882 0 11.3287 0 12.6125C0 13.8963 1.04073 14.9368 2.32433 14.9368H9.13458C13.2526 14.9368 16.6029 11.5865 16.6029 7.46856Z" fill="#F2353F"/>
<path d="M81.7284 20.0004C80.4448 19.9992 79.405 18.9577 79.4062 17.6739L79.4138 9.29949L75.2229 14.8763C74.4518 15.9025 72.9944 16.1096 71.9684 15.3382C70.9422 14.5669 70.7354 13.1099 71.5065 12.0837L79.8863 0.932327C80.4872 0.132978 81.5335 -0.193833 82.4815 0.124359C83.4305 0.441644 84.0698 1.3302 84.0689 2.33075L84.0548 17.6781C84.0537 18.962 83.012 20.0015 81.7284 20.0004Z" fill="#F2353F"/>
<path d="M122.911 12.0893H122.912L121.053 9.61011L119.193 12.0893H119.195C118.903 12.4776 118.729 12.9585 118.729 13.4814C118.729 14.7651 119.769 15.8058 121.053 15.8058C122.337 15.8058 123.377 14.7651 123.377 13.4814C123.377 12.9585 123.202 12.4776 122.911 12.0893Z" fill="#1F2C37"/>
<path d="M31.7587 11.2226C30.8852 9.88851 28.8534 9.88549 27.9623 11.156C27.4048 11.8966 27.3632 12.9751 27.8645 13.7546C29.1037 15.749 31.8432 14.55 33.3053 13.5005L31.7587 11.2226Z" fill="#1F2C37"/>
<path d="M2.32433 4.6494H4.64866V2.32506C4.64866 1.04123 3.60794 0.000732422 2.32433 0.000732422C1.04073 0.000732422 0 1.04123 0 2.32506C0 3.60889 1.04073 4.6494 2.32433 4.6494Z" fill="#1F2C37"/>
<path d="M2.32433 14.9372H4.64866V10.2886H2.32433C1.04073 10.2886 0 11.3291 0 12.6129C0 13.8967 1.04073 14.9372 2.32433 14.9372Z" fill="#1F2C37"/>
<path d="M154.413 13.439L157.566 9.99879L154.413 6.55859L151.26 9.99879L154.413 13.439Z" fill="#1F2C37"/>
<path d="M49.5218 4.64964C50.8055 4.64964 51.8462 3.609 51.8462 2.32531C51.8462 1.04162 50.8055 0.000976562 49.5218 0.000976562C48.2382 0.000976562 47.1975 1.04162 47.1975 2.32531C47.1975 3.609 48.2382 4.64964 49.5218 4.64964Z" fill="#1F2C37"/>
<path d="M49.5218 19.9761C50.8055 19.9761 51.8462 18.9354 51.8462 17.6517C51.8462 16.368 50.8055 15.3274 49.5218 15.3274C48.2382 15.3274 47.1975 16.368 47.1975 17.6517C47.1975 18.9354 48.2382 19.9761 49.5218 19.9761Z" fill="#1F2C37"/>
<path d="M97.214 4.64964C98.4977 4.64964 99.5383 3.609 99.5383 2.32531C99.5383 1.04162 98.4977 0.000976562 97.214 0.000976562C95.9303 0.000976562 94.8896 1.04162 94.8896 2.32531C94.8896 3.609 95.9303 4.64964 97.214 4.64964Z" fill="#1F2C37"/>
<path d="M97.214 19.9761C98.4977 19.9761 99.5383 18.9354 99.5383 17.6517C99.5383 16.368 98.4977 15.3274 97.214 15.3274C95.9303 15.3274 94.8896 16.368 94.8896 17.6517C94.8896 18.9354 95.9303 19.9761 97.214 19.9761Z" fill="#1F2C37"/>
<path d="M22.0912 4.64964H24.4155V2.32531C24.4155 1.04148 23.3748 0.000976562 22.0912 0.000976562C20.8076 0.000976562 19.7668 1.04148 19.7668 2.32531C19.7668 3.60914 20.8076 4.64964 22.0912 4.64964Z" fill="#1F2C37"/>
<path d="M75.226 12.0893H75.2272L73.3677 9.61011L71.5083 12.0893H71.5096C71.2181 12.4776 71.0435 12.9585 71.0435 13.4814C71.0435 14.7651 72.0841 15.8058 73.3678 15.8058C74.6515 15.8058 75.6922 14.7651 75.6922 13.4814C75.6922 12.9585 75.5174 12.4776 75.226 12.0893Z" fill="#1F2C37"/>
</svg>
