<svg width="20" height="20" viewBox="0 0 20 20" fill="none" xmlns="http://www.w3.org/2000/svg">
<path d="M8.66667 16.3333C10.205 16.3333 11.6192 15.8042 12.7475 14.9267L16.4108 18.59L17.5892 17.4117L13.9258 13.7483C14.8042 12.6192 15.3333 11.205 15.3333 9.66667C15.3333 5.99083 12.3425 3 8.66667 3C4.99083 3 2 5.99083 2 9.66667C2 13.3425 4.99083 16.3333 8.66667 16.3333ZM8.66667 4.66667C11.4242 4.66667 13.6667 6.90917 13.6667 9.66667C13.6667 12.4242 11.4242 14.6667 8.66667 14.6667C5.90917 14.6667 3.66667 12.4242 3.66667 9.66667C3.66667 6.90917 5.90917 4.66667 8.66667 4.66667Z" fill="#1F2C37"/>
</svg>
