<svg width="70" height="70" viewBox="0 0 70 70" fill="none" xmlns="http://www.w3.org/2000/svg">
<path fill-rule="evenodd" clip-rule="evenodd" d="M35.4298 7.45826L62.1812 25.2069L62.1946 25.2154C62.44 25.3708 62.5877 25.6523 62.5825 25.92L62.5822 25.9345V43.9301L62.5825 43.9445C62.5853 44.0897 62.544 44.2537 62.4374 44.4136L62.4354 44.4167C62.3771 44.5046 62.2977 44.5825 62.1939 44.6487L62.1822 44.6561L35.4269 62.4112L35.4145 62.4198C35.292 62.5047 35.1402 62.5582 34.9564 62.5582C34.7851 62.5582 34.6307 62.5069 34.4995 62.4167L34.4893 62.4097L7.74839 44.6641C7.46945 44.4788 7.33344 44.2524 7.33344 43.9157V25.9345L7.33316 25.92C7.33024 25.7693 7.37046 25.6128 7.46908 25.4633C7.53917 25.3595 7.62335 25.2824 7.69936 25.2358L7.72242 25.2217L34.49 7.45745L34.5007 7.45005C34.7281 7.29338 35.1868 7.29148 35.4201 7.45161L35.4298 7.45826ZM48.2683 33.8808L60.2709 25.9168L35.7751 9.66728V25.4792L48.2683 33.8808ZM34.1347 25.4792V9.6665L9.64537 25.9199L21.6415 33.8808L34.1347 25.4792ZM20.1677 34.8775L8.9826 27.4519V42.4012L20.1677 34.8775ZM9.63465 43.9479L34.1347 60.2003V44.1491L21.6475 35.8641L9.63465 43.9479ZM23.1314 34.8646L34.953 42.7179L46.786 34.8646L34.953 26.9092L23.1314 34.8646ZM35.778 44.1461V60.2009L60.2742 43.9452L48.2685 35.8611L35.778 44.1461ZM49.7471 34.8775L60.9359 42.4005V27.4525L49.7471 34.8775Z" fill="#F2353F"/>
</svg>
