<svg width="70" height="70" viewBox="0 0 70 70" fill="none" xmlns="http://www.w3.org/2000/svg">
<path d="M19.1997 22.1167H21.172V47.8834H19.1997V22.1167Z" fill="#F2353F"/>
<path d="M37.1125 22.1167H39.133V47.8834H37.1125V22.1167Z" fill="#F2353F"/>
<path fill-rule="evenodd" clip-rule="evenodd" d="M50.7999 11.6669V19.2002H58.3332C60.6114 19.2002 62.4665 21.0553 62.4665 23.3335V46.6669C62.4665 48.9451 60.6114 50.8002 58.3332 50.8002H50.7999V55.4169C50.7999 59.3022 47.6352 62.4669 43.7499 62.4669H14.5832C10.6979 62.4669 7.5332 59.3022 7.5332 55.4169V11.6669C7.5332 10.9946 8.07694 10.4502 8.74987 10.4502H49.5832C50.2561 10.4502 50.7999 10.9946 50.7999 11.6669ZM48.3665 55.4169V12.8835H9.96654V55.4169C9.96654 57.9617 12.0332 60.0335 14.5832 60.0335H43.7499C46.2999 60.0335 48.3665 57.9617 48.3665 55.4169ZM50.7999 48.3669H60.0332V21.6335H50.7999V48.3669Z" fill="#F2353F"/>
</svg>
