<svg width="70" height="70" viewBox="0 0 70 70" fill="none" xmlns="http://www.w3.org/2000/svg">
<path d="M19.1997 36.7002H33.2997V39.1335H19.1997V36.7002Z" fill="#F2353F"/>
<path d="M19.1997 48.3669H33.2997V50.8002H19.1997V48.3669Z" fill="#F2353F"/>
<path fill-rule="evenodd" clip-rule="evenodd" d="M58.3332 44.9665H44.9665V58.3332C44.9665 60.6114 43.1114 62.4666 40.8332 62.4666H11.6665C9.38834 62.4666 7.5332 60.6114 7.5332 58.3332V29.1665C7.5332 26.8883 9.38834 25.0332 11.6665 25.0332H25.0332V11.6665C25.0332 9.38834 26.8883 7.5332 29.1665 7.5332H58.3332C60.6114 7.5332 62.4665 9.38834 62.4665 11.6665V40.8332C62.4665 43.1114 60.6114 44.9665 58.3332 44.9665ZM9.96654 27.4665V60.0332H42.5394L42.5329 27.4665H9.96654ZM44.9665 42.5332H60.0332V9.96654H27.4665V25.0332H40.8332C43.1114 25.0332 44.9665 26.8883 44.9665 29.1665V42.5332Z" fill="#F2353F"/>
</svg>
