<svg width="70" height="70" viewBox="0 0 70 70" fill="none" xmlns="http://www.w3.org/2000/svg">
<path d="M53.0167 23.9177H40.1665V21.3177H53.0167V23.9177Z" fill="#F2353F"/>
<path fill-rule="evenodd" clip-rule="evenodd" d="M17.9111 56.8539V45.6H12.1333C9.85514 45.6 8 43.7449 8 41.4667V19.05C8 15.1647 11.1647 12 15.05 12H55.8833C59.7686 12 62.9333 15.1647 62.9333 19.05V41.4667C62.9333 43.7449 61.0782 45.6 58.8 45.6H53.0167V56.8539C53.0167 57.9283 52.1405 58.8044 51.0661 58.8044H19.8617C18.7873 58.8044 17.9111 57.9283 17.9111 56.8539ZM53.0167 32.9506V43.1667H60.5V19.05C60.5 16.5051 58.4333 14.4333 55.8833 14.4333H15.05C12.504 14.4333 10.4333 16.504 10.4333 19.05V43.1667H17.9111V32.9506C17.9111 31.8762 18.7873 31 19.8617 31H51.0661C52.1405 31 53.0167 31.8762 53.0167 32.9506ZM20.1617 33.2505V56.5539H50.7701L50.7658 33.2505H20.1617Z" fill="#F2353F"/>
<path d="M30.4665 45.4667L32.9665 48.8L37.9665 42.1333L44.4665 50.8H26.4665L30.4665 45.4667Z" fill="#F2353F"/>
</svg>
