<svg width="70" height="70" viewBox="0 0 70 70" fill="none" xmlns="http://www.w3.org/2000/svg">
<path d="M24.5497 45.2087C24.5497 46.6861 23.3521 47.8837 21.8747 47.8837C20.3973 47.8837 19.1997 46.6861 19.1997 45.2087C19.1997 43.7313 20.3973 42.5337 21.8747 42.5337C23.3521 42.5337 24.5497 43.7313 24.5497 45.2087Z" fill="#F2353F"/>
<path d="M50.7997 45.2087C50.7997 46.6861 49.6021 47.8837 48.1247 47.8837C46.6473 47.8837 45.4497 46.6861 45.4497 45.2087C45.4497 43.7313 46.6473 42.5337 48.1247 42.5337C49.6021 42.5337 50.7997 43.7313 50.7997 45.2087Z" fill="#F2353F"/>
<path fill-rule="evenodd" clip-rule="evenodd" d="M59.5615 17.5004V24.8061L61.0998 24.9531C61.3972 24.9815 61.674 25.0488 61.8932 25.1695C62.0801 25.2725 62.2617 25.431 62.3974 25.7542C62.4671 25.9256 62.4965 26.1153 62.4826 26.3093L62.4782 26.3702V32.0837C62.4782 32.7559 61.9345 33.3004 61.2615 33.3004H59.5615V52.5004C59.5615 54.0081 58.7341 55.3294 57.4789 56.0589L56.6332 56.5505V61.2504C56.6332 61.9244 56.0906 62.467 55.4165 62.467H52.4999C51.8258 62.467 51.2832 61.9244 51.2832 61.2504V56.6337H18.7165V61.2504C18.7165 61.9244 18.1739 62.467 17.4999 62.467H14.5832C13.9092 62.467 13.3665 61.9244 13.3665 61.2504V56.5436L12.527 56.0508C11.2818 55.3202 10.4615 54.0008 10.4615 52.5004V33.3004H8.74987C8.07694 33.3004 7.5332 32.7559 7.5332 32.0837V26.2504C7.5332 25.6123 8.01973 25.0863 8.65388 25.0358L8.65545 25.0357L8.6971 25.0333C8.73323 25.0313 8.78369 25.0287 8.84051 25.026L10.4615 24.9506V17.5004C10.4615 12.0051 14.9329 7.53369 20.4282 7.53369H49.5949C55.0901 7.53369 59.5615 12.0051 59.5615 17.5004ZM12.8949 54.2004H57.1165V50.4L57.1331 36.217H12.8949V54.2004ZM12.8949 33.7837H33.7949V18.717H12.8949V33.7837ZM36.2282 33.7837H57.1282V18.717H36.2282V33.7837ZM12.4463 16.2837H57.5768L56.0859 13.7273C54.7897 11.5047 52.3859 9.96703 49.5949 9.96703H20.4282C17.6372 9.96703 15.2334 11.5047 13.9372 13.7273L12.4463 16.2837Z" fill="#F2353F"/>
</svg>
