<svg width="70" height="70" viewBox="0 0 70 70" fill="none" xmlns="http://www.w3.org/2000/svg">
<path d="M41.8255 35.1304C43.6632 35.1304 45.1528 33.6407 45.1528 31.8031V28.6851H38.4983V31.8031C38.4983 33.6407 39.9879 35.1304 41.8255 35.1304V35.1304Z" fill="#F2353F"/>
<path fill-rule="evenodd" clip-rule="evenodd" d="M23.9853 9.37317L23.7765 9.44069C19.7559 10.7415 11.8661 13.3266 8.03022 14.5835L7.82509 14.6507C6.62634 15.0444 5.83301 16.1557 5.83301 17.4157V28.254C5.83301 30.1498 7.61509 31.544 9.45551 31.0832L17.4997 29.0736V58.4273C17.4997 60.0373 18.8034 61.3439 20.4163 61.3439H49.583C51.1959 61.3439 52.4997 60.0373 52.4997 58.4273V29.0736L60.5438 31.0832C62.3843 31.544 64.1663 30.1528 64.1663 28.254V17.4157C64.1663 16.1557 63.373 15.0444 62.1713 14.6507C58.4207 13.4211 50.3164 10.7652 46.2228 9.4407L46.014 9.37318C44.6795 8.94181 43.8187 8.66767 43.7536 8.65693C43.751 8.6565 43.7497 8.65693 43.7497 8.65693C43.7497 9.51621 43.6259 10.3465 43.3951 11.131L43.3874 11.1568C42.3119 14.7715 38.9639 17.4069 34.9997 17.4069C31.0355 17.4069 27.6874 14.7715 26.6119 11.1568L26.6043 11.131C26.3735 10.3465 26.2497 9.51621 26.2497 8.65693C26.2497 8.65693 26.2483 8.6565 26.2457 8.65693C26.1807 8.66767 25.3199 8.9418 23.9853 9.37317ZM50.2599 13.383C54.2219 14.6759 58.8259 16.1848 61.3925 17.0263C61.5535 17.079 61.6663 17.2221 61.6663 17.4157V28.254C61.6663 28.5274 61.412 28.7234 61.1511 28.6581L49.9997 25.8722V58.4273C49.9997 58.6582 49.8136 58.8439 49.583 58.8439H20.4163C20.1858 58.8439 19.9997 58.6582 19.9997 58.4273V25.8722L8.84827 28.6581C8.58907 28.723 8.33301 28.5263 8.33301 28.254V17.4157C8.33301 17.2211 8.4472 17.0781 8.60525 17.0258L8.81138 16.9583C11.4149 16.1052 15.8813 14.6418 19.739 13.383C21.4217 12.8339 22.9869 12.3243 24.2305 11.9214C25.6294 16.5429 29.9214 19.9069 34.9997 19.9069C40.078 19.9069 44.3699 16.5429 45.7688 11.9215C47.0123 12.3243 48.5774 12.8339 50.2599 13.383Z" fill="#F2353F"/>
</svg>
