<svg width="134" height="74" viewBox="0 0 134 74" fill="none" xmlns="http://www.w3.org/2000/svg">
<path d="M5.36001 63.4816H0V60.1836H14.6229V63.4881H9.26293V72.5949H5.36001V63.4816Z" fill="#656565"/>
<path d="M29.6101 60.1836V72.5428H25.8373V65.355L19.3324 72.5623H16.002V60.2031H19.7748V67.4105L26.2796 60.2031L29.6101 60.1836Z" fill="#656565"/>
<path d="M36.1088 72.5614H32.3359V60.2021H36.1088V64.7556H42.1713V60.2021H45.9441V72.5614H42.1713V67.9559H36.1088V72.5614Z" fill="#656565"/>
<path d="M48.6631 72.5614V60.2021H52.4359V63.5326H56.3388C57.2708 63.4846 58.2041 63.5991 59.0969 63.8709C59.9545 64.1594 60.695 64.719 61.2066 65.4653C61.7182 66.2116 61.9732 67.1041 61.933 68.008C61.9658 68.9881 61.6604 69.9497 61.0682 70.7314C60.476 71.5131 59.633 72.0674 58.6806 72.3012C57.9085 72.5064 57.1115 72.6027 56.3128 72.5874L48.6631 72.5614ZM52.4359 69.5692H55.6883C56.19 69.6143 56.6956 69.5522 57.1714 69.387C57.4594 69.2685 57.7051 69.0662 57.8767 68.8064C58.0484 68.5466 58.1381 68.2413 58.1342 67.9299C58.1399 67.6221 58.0434 67.321 57.8598 67.0738C57.6762 66.8266 57.4158 66.6473 57.1194 66.5639C56.6459 66.4307 56.1533 66.378 55.6623 66.4078H52.4099L52.4359 69.5692Z" fill="#656565"/>
<path d="M67.4164 72.5614H63.6436V60.2021H67.4164V64.8596H68.4572L73.0106 60.2021H77.7461L71.7096 66.1346L77.9803 72.5874H72.9585L68.4572 67.9039H67.4164V72.5614Z" fill="#656565"/>
<path d="M93.924 66.3951C93.924 70.0899 90.8797 72.952 85.8319 72.952C80.7842 72.952 77.7139 70.0899 77.7139 66.3951C77.7139 62.7004 80.7581 59.8447 85.8645 59.8447C90.9708 59.8447 93.924 62.7004 93.924 66.3951ZM89.969 66.3951C89.969 64.3656 88.3298 62.8825 85.8319 62.8825C83.3341 62.8825 81.6948 64.3656 81.6948 66.3951C81.6948 68.4246 83.308 69.9338 85.8319 69.9338C88.3558 69.9338 89.969 68.4246 89.969 66.3951Z" fill="#656565"/>
<path d="M113.959 66.3691C113.959 69.9078 111.123 71.7551 106.361 71.8592V73.1082H102.588V71.8592C97.8527 71.7551 95.0166 69.9078 95.0166 66.3691C95.0166 62.8305 97.8527 60.827 102.588 60.7229V59.4805H106.361V60.7099C111.123 60.827 113.959 62.8305 113.959 66.3691ZM102.588 63.4029C99.9863 63.507 98.8415 64.7039 98.8415 66.3691C98.8415 68.0344 99.9863 69.1012 102.588 69.2052V63.4029ZM110.108 66.3691C110.108 64.7039 108.989 63.507 106.361 63.4029V69.2052C108.989 69.1012 110.108 68.0344 110.108 66.3691Z" fill="#656565"/>
<path d="M134 66.3691C134 69.9078 131.164 71.7551 126.402 71.8592V73.1082H122.629V71.8592C117.894 71.7551 115.058 69.9078 115.058 66.3691C115.058 62.8305 117.894 60.827 122.629 60.7229V59.4805H126.402V60.7099C131.157 60.827 134 62.8305 134 66.3691ZM122.629 63.4029C120.027 63.507 118.882 64.7039 118.882 66.3691C118.882 68.0344 120.027 69.1012 122.629 69.2052V63.4029ZM130.149 66.3691C130.149 64.7039 129.03 63.507 126.402 63.4029V69.2052C129.024 69.1012 130.142 68.0344 130.142 66.3691H130.149Z" fill="#656565"/>
<path fill-rule="evenodd" clip-rule="evenodd" d="M55.7988 33.3574C56.4492 32.8175 57.0412 32.5508 57.0152 31.2498C55.9939 31.7702 53.1122 31.7442 51.8958 30.0789C51.5511 29.6041 51.8958 29.3699 52.2471 29.7407C53.0732 30.6774 54.6019 30.2546 55.1613 29.9814C55.0655 29.6357 54.8869 29.3187 54.6409 29.0577C54.849 28.8495 55.441 28.5438 55.5646 28.0169C55.052 27.8625 54.5242 27.7644 53.9904 27.7242C54.151 27.5837 54.2654 27.398 54.3188 27.1915C54.3722 26.9849 54.362 26.767 54.2896 26.5663C53.0342 26.9501 51.486 26.4297 51.1348 25.9679C50.7835 25.506 51.1348 25.0832 51.434 25.3824C52.0845 26.0329 55.1353 26.794 56.2801 25.6491C55.8735 25.5409 55.5213 25.286 55.2914 24.9336C56.3517 24.8295 57.1973 24.205 57.2428 23.4245C56.5377 23.4724 55.8307 23.3613 55.1743 23.0992C55.4104 23.0492 55.6279 22.9345 55.8025 22.7679C55.9771 22.6013 56.1019 22.3895 56.163 22.156C54.2116 22.0389 54.0685 20.6014 54.062 20.3607C55.3239 21.0892 57.5486 20.764 56.9696 18.9751C55.9224 18.9166 54.8621 17.2188 57.7502 15.6577C60.3522 14.2396 63.3574 12.7044 63.0972 10.1871C62.9216 8.57386 60.2676 7.47454 59.9293 6.65492C58.8235 7.18182 58.6284 7.79327 59.0967 8.82104C59.0967 8.82104 56.6249 9.06823 56.4297 7.52007C56.4294 7.17377 56.5063 6.83175 56.6548 6.51892C56.8034 6.2061 57.0198 5.93033 57.2884 5.71172C57.0087 5.71172 55.1483 5.21084 54.5889 6.73298C53.5416 6.02395 52.6374 6.04347 51.9479 6.79803C53.0667 7.44852 53.7627 9.74473 55.6166 10.4212C54.3156 11.1368 52.1625 10.8376 50.9201 8.63891C49.7427 10.4147 49.0662 12.171 51.5706 14.0444C46.9717 16.139 47.0172 20.133 43.0102 22.0389C43.42 23.1252 44.2721 23.1252 45.3585 22.9561C43.6282 25.2003 45.1048 27.5551 42.3662 28.5113C42.6199 29.4285 43.1338 30.157 44.1485 29.8903C43.8623 30.3391 43.6737 30.3261 43.2249 30.8205C44.721 31.7637 46.4773 31.0807 46.9001 28.0559C46.9717 27.516 47.7132 27.8543 47.4595 28.3812C45.7552 31.9068 50.0615 34.5608 48.5393 37.1497C49.8858 37.0912 50.9071 36.9871 51.473 36.5318C51.7526 37.0215 51.8836 37.582 51.8503 38.145C52.129 38.1193 52.3894 37.9952 52.5849 37.795C52.7804 37.5947 52.8982 37.3314 52.9171 37.0522C53.405 38.4702 55.1418 39.9858 57.9324 39.9858C56.4557 37.8848 57.8283 35.7447 55.7402 33.3379L55.7988 33.3574ZM52.9887 35.9398L52.3902 36.9546C52.1569 36.3177 51.8742 35.7 51.5446 35.1072C51.0697 36.0959 50.3087 36.1155 49.5931 36.1155C49.8013 33.7672 46.8351 31.3929 48.136 28.6999C48.2036 28.572 48.2451 28.4319 48.2581 28.2878C48.2711 28.1437 48.2554 27.9984 48.2118 27.8605C48.1682 27.7225 48.0977 27.5946 48.0043 27.4841C47.9109 27.3736 47.7965 27.2827 47.6677 27.2168C45.6772 26.2085 46.6009 30.3977 44.6104 30.5213C44.8838 30.0366 45.0791 29.512 45.1893 28.9666C44.7665 29.0772 43.7517 29.7212 43.2964 28.8951C43.7617 28.641 44.1579 28.277 44.4504 27.8349C44.7429 27.3927 44.9229 26.8858 44.9747 26.3582C45.07 25.5839 45.2578 24.824 45.5341 24.0945C45.9551 23.3528 46.4498 22.6554 47.0107 22.0129C46.809 22.0129 44.5714 22.5138 44.0705 22.2796C47.9409 19.9053 47.0692 16.8806 52.9626 14.1941C51.4145 13.0427 49.8338 12.132 50.9656 9.93338C52.5788 11.8848 55.6556 11.2343 57.3079 10.2976C55.6687 9.9724 53.5546 8.52832 53.0537 6.92162C53.7042 6.82405 54.4718 7.49405 54.9336 7.80628C55.1548 7.21434 55.2458 6.50531 55.9614 6.37521C55.0052 8.43075 56.8981 9.49755 58.7064 9.50405C58.9861 9.50405 60.157 9.38697 60.157 9.38697C59.9684 9.00318 59.2138 7.9559 59.7667 7.52657C60.2091 7.94289 60.7359 8.27463 61.2173 8.63891C64.7299 11.3579 59.5456 13.8753 57.425 15.0202C54.0945 16.8155 54.9856 18.9556 56.3777 19.502C56.3777 19.7427 56.2216 19.8533 55.9939 19.9248C55.0247 20.2501 54.1075 19.5541 53.3334 19.1117C53.3789 20.4517 53.2879 21.7137 54.771 22.4813L53.7497 22.8585C54.6279 23.509 54.8946 23.8798 55.9549 24.0164C55.4314 24.2059 54.8789 24.3027 54.3222 24.3026C54.4258 24.7325 54.6018 25.1416 54.8425 25.5125C52.6764 25.7727 51.8113 24.5303 51.1413 24.5823C49.7102 24.6864 49.8013 27.3794 53.3204 27.3794L52.9561 27.9844C53.3598 28.2124 53.8 28.3687 54.2571 28.4462C54.0229 28.6349 53.7953 28.8885 53.6066 29.0967L54.166 29.5781C52.7285 29.8383 52.3252 28.2771 51.395 29.0447C49.9769 30.17 53.1057 32.5443 56.111 32.193C55.7205 32.5769 55.2983 32.9272 54.849 33.2403C57.2949 35.5495 56.0915 37.7287 57.0932 39.3223C56.1491 39.2664 55.2476 38.9098 54.5208 38.3047C53.7939 37.6996 53.2798 36.8777 53.0537 35.9593" fill="#656565"/>
<path fill-rule="evenodd" clip-rule="evenodd" d="M49.1902 27.5354C49.6976 28.0623 50.3156 28.1208 51.4799 28.0427C50.179 27.8866 49.4764 27.5744 49.0276 26.7418C48.9574 26.2741 48.914 25.8028 48.8975 25.3302C48.9369 23.67 49.3981 22.0471 50.2375 20.6142C50.269 21.3832 50.5685 22.1169 51.0841 22.6883C51.5997 23.2598 52.2989 23.6329 53.0606 23.743C51.3043 22.9755 50.27 21.2452 50.8359 19.5734C51.2002 18.988 51.6165 18.383 52.0784 17.7716C52.3125 17.4723 52.5337 17.1926 52.7289 16.9259C52.4947 17.7781 53.5225 18.6627 54.2185 18.8058C53.8412 18.4416 53.0411 17.2512 54.869 15.2672C54.3302 15.5227 53.82 15.8345 53.3468 16.1974C56.7163 12.5547 59.4874 12.4506 60.7624 10.6162C58.915 11.8782 54.0363 12.5677 51.8442 11.9627C53.0541 12.7693 55.9748 12.6978 56.6838 12.5482C54.303 14.8639 49.1122 17.2512 48.2275 19.3783C49.0487 18.3903 50.1626 17.6887 51.4084 17.3748C50.5585 18.5418 49.8304 19.793 49.2357 21.1086C47.8567 24.1073 45.9833 24.1463 45.8857 26.6247C46.5362 24.6732 47.7982 24.2179 48.6828 22.9624C48.5151 23.8607 48.4474 24.7748 48.4812 25.688C48.5034 26.7119 48.7105 27.7235 49.0926 28.6737C49.0016 29.8966 49.0926 31.9847 50.5172 33.3702C49.7419 32.2218 49.3648 30.8507 49.4439 29.4673C50.5432 31.5879 53.6721 34.5151 55.1877 36.4796C53.6721 33.9492 49.9838 30.996 49.1642 27.5809" fill="#656565"/>
<path fill-rule="evenodd" clip-rule="evenodd" d="M83.8543 17.3484C85.0998 17.6632 86.2134 18.3646 87.0352 19.3519C86.1375 17.2248 80.9401 14.8375 78.5789 12.5218C79.2944 12.6714 82.2151 12.7495 83.425 11.9364C81.2329 12.5348 76.3477 11.8518 74.5068 10.5898C75.8078 12.4242 78.5529 12.5413 81.9224 16.171C81.4494 15.8079 80.9391 15.4961 80.4002 15.2408C82.2541 17.2248 81.454 18.4087 81.0507 18.7795C81.7402 18.6299 82.7745 17.7517 82.5403 16.8996C82.7615 17.1663 82.9892 17.4525 83.1908 17.7452C83.6527 18.3567 84.0625 18.9616 84.4267 19.547C84.9862 21.2188 83.9519 22.9491 82.2021 23.7167C82.9631 23.6063 83.6615 23.233 84.176 22.6614C84.6905 22.0899 84.9887 21.3562 85.0187 20.5878C85.8595 22.0202 86.3207 23.6434 86.3587 25.3038C86.3422 25.7765 86.2987 26.2477 86.2286 26.7154C85.7798 27.5675 85.0577 27.8798 83.7828 28.0164C84.9471 28.0879 85.5586 28.0164 86.0725 27.509C85.2724 30.9175 81.5646 33.8773 80.049 36.4076C81.5646 34.4562 84.6935 31.516 85.7928 29.3954C85.8714 30.7787 85.4944 32.1497 84.7195 33.2983C86.118 31.9193 86.2286 29.8312 86.1375 28.6018C86.5179 27.651 86.725 26.6398 86.749 25.6161C86.785 24.7029 86.7174 23.7885 86.5473 22.8905C87.432 24.1525 88.7135 24.6338 89.3444 26.5528C89.2273 24.0744 87.393 24.0354 85.9944 21.0367C85.401 19.7204 84.6729 18.4692 83.8218 17.3029" fill="#656565"/>
<path fill-rule="evenodd" clip-rule="evenodd" d="M89.8648 22.9816C90.9511 23.1507 91.8163 23.1507 92.2131 22.0644C88.2126 20.1585 88.2451 16.1645 83.6527 14.0699C86.1766 12.1965 85.5001 10.4337 84.3032 8.66437C83.0607 10.863 80.9206 11.1622 79.6067 10.4467C81.4605 9.79622 82.1566 7.48699 83.2754 6.82349C82.6119 6.06893 81.7012 6.02339 80.6604 6.71942C80.0945 5.20378 78.2406 5.69815 77.9609 5.69815C78.2295 5.91677 78.4459 6.19253 78.5945 6.50536C78.743 6.81818 78.8199 7.1602 78.8196 7.5065C78.6244 9.02864 76.1591 8.80748 76.1591 8.80748C76.6535 7.77971 76.4388 7.16825 75.3265 6.64136C74.9882 7.46097 72.3342 8.56029 72.1651 10.1735C71.8984 12.6974 74.8841 14.226 77.5056 15.6441C80.3938 17.2053 79.3335 18.8965 78.2862 18.9616C77.7072 20.7569 79.9319 21.0757 81.1938 20.3471C81.1938 20.5878 81.0312 22.0254 79.0928 22.1424C79.1539 22.3759 79.2787 22.5877 79.4533 22.7543C79.628 22.9209 79.8454 23.0356 80.0815 23.0857C79.4248 23.3466 78.7181 23.4578 78.013 23.4109C78.0845 24.1915 78.9302 24.8159 79.9644 24.92C79.7401 25.2789 79.3898 25.5411 78.9822 25.6551C80.127 26.7934 83.2038 26.0454 83.8283 25.3884C84.1145 25.0892 84.4788 25.5185 84.1275 25.9673C83.7763 26.4161 82.2281 26.956 80.9727 26.5723C80.9004 26.7724 80.8897 26.9897 80.9418 27.196C80.994 27.4023 81.1067 27.5883 81.2654 27.7301C80.7426 27.7726 80.2258 27.8707 79.7237 28.0228C79.8408 28.5497 80.4393 28.8555 80.6474 29.0636C80.3922 29.322 80.2046 29.6392 80.101 29.9873C80.6604 30.2605 82.1956 30.6833 83.0152 29.7466C83.347 29.3759 83.7112 29.61 83.373 30.0849C82.1631 31.7501 79.2749 31.7762 78.2537 31.2558C78.2537 32.5567 78.787 32.8234 79.4701 33.3698C77.382 35.7766 78.761 37.9232 77.2844 40.0178C80.0685 40.0178 81.8378 38.5022 82.2997 37.0841C82.3186 37.3633 82.4364 37.6267 82.6319 37.827C82.8274 38.0272 83.0878 38.1513 83.3665 38.1769C83.3357 37.6142 83.4667 37.0545 83.7438 36.5637C84.3097 37.0191 85.3374 37.1232 86.6774 37.1817C85.1553 34.5797 89.468 31.9453 87.7573 28.4131C87.5036 27.8862 88.2451 27.548 88.3167 28.0879C88.7135 31.1061 90.4958 31.7957 91.9919 30.8525C91.5431 30.3581 91.3414 30.3711 91.0682 29.9223C92.0765 30.189 92.5904 29.4604 92.8506 28.5432C90.112 27.5805 91.5886 25.2323 89.8583 22.9881L89.8648 22.9816ZM90.086 28.9921C90.1903 29.5402 90.3837 30.0676 90.6584 30.5532C88.6679 30.4231 89.5916 26.234 87.6011 27.2423C87.4723 27.3082 87.3579 27.399 87.2645 27.5095C87.1711 27.62 87.1006 27.748 87.057 27.8859C87.0135 28.0239 86.9977 28.1692 87.0107 28.3133C87.0237 28.4574 87.0652 28.5974 87.1328 28.7254C88.4338 31.4184 85.4675 33.7927 85.6367 36.1539C84.9016 36.1539 84.1405 36.1539 83.6852 35.1457C83.3559 35.7386 83.0732 36.3563 82.8396 36.9931L82.2411 35.9783C82.0141 36.8962 81.4997 37.7175 80.7731 38.3225C80.0464 38.9274 79.1454 39.2844 78.2016 39.3413C79.2034 37.7476 78 35.575 80.4458 33.2593C79.9961 32.9467 79.5739 32.5964 79.1838 32.212C82.1891 32.5697 85.3179 30.189 83.8934 29.0636C82.9632 28.3286 82.5534 29.8572 81.1223 29.597L81.6817 29.1157C81.4866 28.9205 81.2589 28.6668 81.0312 28.4652C81.4885 28.3882 81.9287 28.2319 82.3322 28.0033L81.9679 27.3984C85.4871 27.3984 85.5716 24.7054 84.1471 24.6013C83.4966 24.5492 82.6054 25.7852 80.4458 25.5315C80.6839 25.1591 80.8596 24.7505 80.9662 24.3216C80.4095 24.3216 79.857 24.2247 79.3335 24.0354C80.3937 23.8988 80.6344 23.541 81.5386 22.8775L80.5173 22.5002C82.0005 21.7587 81.9094 20.4707 81.9484 19.1307C81.1743 19.5795 80.2571 20.269 79.2944 19.9438C79.0668 19.8657 78.9106 19.7617 78.9106 19.521C80.3027 18.9746 81.1873 16.8345 77.8634 15.0391C75.7167 13.8748 70.5259 11.3639 74.045 8.67087C74.5264 8.3066 75.0468 7.97485 75.4891 7.55854C76.042 7.98136 75.2874 9.02864 75.0988 9.41893C75.0988 9.41893 76.2697 9.53602 76.5429 9.53602C78.3512 9.53602 80.2506 8.45621 79.2944 6.40718C80.0165 6.55679 80.101 7.24631 80.3157 7.83825C80.7775 7.52602 81.5776 6.85602 82.1956 6.95359C81.6947 8.56029 79.5937 10.0044 77.9414 10.3296C79.6002 11.2338 82.6705 11.9038 84.2837 9.96534C85.4155 12.1575 83.8413 13.0747 82.2867 14.226C88.1866 16.919 87.3149 19.9373 91.1853 22.3116C90.6844 22.5457 88.4403 22.0774 88.2451 22.0449C88.8093 22.6863 89.3062 23.3838 89.7282 24.1264C90.0083 24.8556 90.2005 25.6155 90.3007 26.3901C90.3552 26.917 90.5362 27.4228 90.8285 27.8645C91.1207 28.3063 91.5154 28.6708 91.9789 28.927C91.5236 29.7531 90.5153 29.1092 90.0925 28.9986" fill="#656565"/>
<path fill-rule="evenodd" clip-rule="evenodd" d="M62.0041 35.5817L62.8432 34.8662L62.7131 34.606C62.6221 34.4239 62.6676 34.4109 62.7652 34.3393L63.2075 34.0076C63.2554 33.9718 63.3115 33.9489 63.3707 33.9409C63.4299 33.933 63.4902 33.9402 63.5458 33.962L64.8467 34.2743H63.4742C63.3544 34.2692 63.2362 34.3041 63.1385 34.3736C63.0407 34.4431 62.9689 34.5432 62.9343 34.658L62.8367 34.8597L62.4725 35.6012C62.3879 35.7582 62.3556 35.9381 62.3801 36.1147C62.4047 36.2913 62.4849 36.4555 62.6091 36.5835L62.8627 36.8827L62.3554 37.943H62.7912L63.149 37.2145C63.4488 36.9398 63.6728 36.5926 63.7994 36.2062C63.6498 36.0826 63.5392 35.998 63.6238 35.8224L63.7864 35.4777C63.8385 35.3606 63.858 35.315 64.0141 35.3476L65.4126 35.6533C65.5173 35.7057 65.6372 35.7187 65.7506 35.6901C65.8641 35.6614 65.9634 35.593 66.0306 35.4972C66.2258 35.2045 66.2518 35.237 66.6811 35.2825L67.3966 35.3606C68.2017 35.4641 69.0186 35.3044 69.7254 34.9052C69.8856 35.1719 70.0593 35.4303 70.2458 35.6793C70.2913 35.7639 70.2458 35.8875 70.1547 36.0436L69.3806 37.943H70.6165L71.3191 36.1932C71.3696 36.0561 71.4496 35.9318 71.5532 35.8289L71.1499 37.943H72.3468L72.6656 35.8484C72.7371 35.3866 72.6656 35.237 72.4704 35.0418C71.9696 34.619 71.9826 33.7409 71.8199 33.1944C71.9107 33.143 72.0157 33.1225 72.1192 33.1359C72.3794 33.1359 72.5745 33.8319 72.8867 34.2547C73.4982 35.1199 74.3373 36.0696 75.3 34.7296C75.2081 34.5801 75.1036 34.4387 74.9878 34.3068L74.7211 33.9945C74.565 33.8189 73.8234 32.9733 73.5112 32.6936C73.224 32.4081 72.8493 32.2273 72.4471 32.1801C72.0449 32.1329 71.6385 32.2221 71.293 32.4334C70.3173 31.926 69.2895 32.4334 69.0424 32.4334L67.3641 32.3293C67.3086 32.3272 67.2545 32.3113 67.2068 32.2828C67.159 32.2544 67.1192 32.2145 67.0909 32.1667L67.4031 32.0626C67.1104 30.8462 66.3754 29.8249 65.0939 29.6558C65.0939 29.6558 65.0159 29.272 64.8272 29.194L64.4434 29.6493C64.3315 29.6654 64.2222 29.696 64.1182 29.7404L62.479 29.1289L63.7084 30.3713C63.7084 30.3713 63.0969 31.256 62.8953 31.4381C62.8353 31.5 62.8017 31.5828 62.8017 31.6691C62.8017 31.7553 62.8353 31.8381 62.8953 31.9L63.1359 32.2122C63.2595 32.3748 63.3961 32.3683 63.5913 32.2643L63.858 32.1276C63.9751 32.0301 64.3719 32.2252 64.5085 32.0691C64.4399 32.3878 64.4029 32.7124 64.3979 33.0383L63.2921 32.9082C63.2053 32.8863 63.1145 32.8854 63.0274 32.9058C62.9402 32.9262 62.8592 32.9672 62.7912 33.0253L61.848 33.7474C61.6944 33.8671 61.5885 34.0375 61.5491 34.2282C61.5098 34.419 61.5396 34.6174 61.6333 34.7881L62.0041 35.5817ZM71.1109 35.7899L70.3628 37.6308H69.901L70.6491 35.8484C70.7271 35.6208 70.5775 35.5102 70.3954 35.2565C70.6551 35.409 70.9271 35.5395 71.2085 35.6468C71.1737 35.6915 71.1433 35.7395 71.1174 35.7899H71.1109ZM63.91 31.7959L63.6954 31.9065C63.5458 31.991 63.4742 32.0301 63.3441 31.8675L63.253 31.7504C63.2236 31.7042 63.2108 31.6494 63.2167 31.595C63.2227 31.5406 63.2469 31.4899 63.2856 31.4511L64.2027 30.3778L63.3571 29.6818L64.4369 30.0786L64.8337 29.5842C64.9508 29.6818 64.9118 29.968 64.9118 29.968C65.4165 30.0705 65.8688 30.3479 66.189 30.7514C66.5091 31.1548 66.6765 31.6584 66.6616 32.1732C66.8115 32.402 67.0449 32.5631 67.3121 32.622L69.179 32.7326C69.4847 32.7326 70.2588 32.1407 71.254 32.7326C71.4934 32.5747 71.7641 32.4704 72.0476 32.4269C72.4517 32.4372 72.8468 32.5485 73.1967 32.7508C73.5467 32.9531 73.8404 33.2398 74.0511 33.5847C74.4024 34.0271 74.8837 34.7101 74.8837 34.7101C74.6756 34.9573 74.4739 35.0353 74.3048 34.9768C74.1882 34.9091 74.0892 34.815 74.0157 34.702C73.9423 34.589 73.8965 34.4603 73.882 34.3263C73.7452 33.9892 73.5206 33.695 73.2315 33.4742C73.369 33.7855 73.4653 34.1136 73.5177 34.4499C72.7892 33.7278 72.6526 32.8432 72.1387 32.7261C71.9979 32.7047 71.854 32.724 71.7238 32.7816C71.5936 32.8392 71.4825 32.9328 71.4036 33.0513C71.6638 33.6498 71.6508 34.3523 71.911 34.8011C72.1127 35.1459 72.1517 35.1784 72.2428 35.2565C72.4574 35.4126 72.3338 35.6858 72.3013 35.907L72.0216 37.6373H71.5532L71.859 35.9395C71.95 35.4256 70.4995 35.4256 69.7579 34.4369C69.1074 35.1784 67.3511 34.9898 66.5835 34.8727C66.4412 34.8212 66.2854 34.821 66.1429 34.8721C66.0004 34.9231 65.8802 35.0223 65.8029 35.1524C65.7054 35.328 65.5362 35.276 65.4322 35.25L64.0336 34.9508C63.9895 34.9312 63.9418 34.9213 63.8935 34.9218C63.8453 34.9222 63.7977 34.9329 63.754 34.9533C63.7102 34.9736 63.6713 35.003 63.6399 35.0396C63.6085 35.0762 63.5853 35.1191 63.5718 35.1654L63.2921 35.7444C63.2565 35.7981 63.2422 35.8631 63.2518 35.9267C63.2614 35.9904 63.2943 36.0483 63.3441 36.0891L63.4807 36.2322C63.4144 36.4209 63.3 36.589 63.149 36.7201L62.8432 36.3753C62.7761 36.2816 62.7367 36.1708 62.7298 36.0557C62.7229 35.9406 62.7487 35.8259 62.8042 35.7248L63.2595 34.7816C63.2888 34.7167 63.3364 34.6618 63.3965 34.6236C63.4566 34.5855 63.5266 34.5658 63.5978 34.567H65.3281L64.7947 33.7018C64.3979 33.0513 65.0549 31.9 64.9573 31.3536C64.9053 32.0821 64.0271 31.7504 63.884 31.8479L63.91 31.7959ZM62.0236 33.975L62.8432 33.3245C62.8949 33.2684 62.9586 33.2246 63.0295 33.1964C63.1005 33.1682 63.1769 33.1565 63.253 33.1619L64.4109 33.3115C64.463 33.5079 64.5464 33.6947 64.6581 33.8644L63.4287 33.6043C63.3601 33.5877 63.2885 33.5885 63.2203 33.6067C63.1521 33.6248 63.0896 33.6598 63.0384 33.7083L62.4529 34.1507C62.4007 34.197 62.3667 34.2605 62.3572 34.3297C62.3476 34.3989 62.3631 34.4692 62.4009 34.5279L62.4985 34.7296L62.0887 35.0353L61.9325 34.7426C61.7764 34.4304 61.7634 34.1442 62.0236 33.9425" fill="#656565"/>
<path fill-rule="evenodd" clip-rule="evenodd" d="M65.5943 11.7417C65.99 11.992 66.4056 12.2096 66.8367 12.3922V11.8653L65.0869 11.2148C65.0869 11.2148 65.0869 11.4295 65.5943 11.7743" fill="#656565"/>
<path fill-rule="evenodd" clip-rule="evenodd" d="M66.8375 11.1041V10.5772L64.8535 9.86816C65.0805 10.0914 65.3289 10.2919 65.5951 10.4666C65.9905 10.7175 66.4061 10.935 66.8375 11.1171" fill="#656565"/>
<path fill-rule="evenodd" clip-rule="evenodd" d="M66.8377 9.90674V9.37334L64.665 8.57324C64.665 8.57324 65.0879 8.918 65.5952 9.26276C65.991 9.51303 66.4065 9.73058 66.8377 9.91324" fill="#656565"/>
<path fill-rule="evenodd" clip-rule="evenodd" d="M72.9453 17.1276H75.17C75.0866 16.9141 74.9346 16.7344 74.738 16.6167C74.5414 16.4989 74.3112 16.4498 74.0837 16.4771C73.8523 16.4693 73.6233 16.5261 73.4223 16.6409C73.2213 16.7558 73.0561 16.9243 72.9453 17.1276Z" fill="#656565"/>
<path fill-rule="evenodd" clip-rule="evenodd" d="M70.617 8.57975L68.4443 9.37985V9.91324C68.876 9.73157 69.2916 9.51398 69.6868 9.26276C70.1941 8.918 70.617 8.57324 70.617 8.57324" fill="#656565"/>
<path fill-rule="evenodd" clip-rule="evenodd" d="M70.1941 11.1888L68.4443 11.8393V12.3662C68.8755 12.1835 69.291 11.9659 69.6868 11.7157C70.1941 11.3709 70.1941 11.1562 70.1941 11.1562" fill="#656565"/>
<path fill-rule="evenodd" clip-rule="evenodd" d="M70.4349 9.86848L68.4834 10.5775V11.1044C68.9151 10.9229 69.3307 10.7053 69.7258 10.4539C69.9922 10.2794 70.2406 10.079 70.4674 9.85547" fill="#656565"/>
<path fill-rule="evenodd" clip-rule="evenodd" d="M61.1976 16.4776C60.9699 16.4492 60.7393 16.4978 60.5424 16.6157C60.3456 16.7336 60.1938 16.914 60.1113 17.1281H62.336C62.2246 16.9253 62.0594 16.7573 61.8585 16.6425C61.6576 16.5277 61.4289 16.4706 61.1976 16.4776Z" fill="#656565"/>
<path fill-rule="evenodd" clip-rule="evenodd" d="M72.0543 7.15586C72.0543 5.90692 69.9532 4.78809 67.6375 4.78809C65.3218 4.78809 63.2207 5.90692 63.2207 7.15586L63.2727 7.46159L64.1964 12.7696L59.8447 15.326C59.5361 15.5276 59.2738 15.7925 59.0753 16.1032C58.8768 16.4138 58.7466 16.7631 58.6933 17.1278H59.4934C59.5501 16.6847 59.7718 16.2793 60.1142 15.9923C60.4566 15.7054 60.8946 15.558 61.3408 15.5797C62.349 15.6317 62.9475 16.2301 63.5459 17.1278L63.702 17.362L63.9232 17.7067H57.4834C58.0234 18.6384 58.3396 19.6828 58.4071 20.7575V34.1315C58.4071 37.5791 61.0546 39.2183 63.9232 39.2183C66.1349 39.2183 66.4341 39.1208 67.657 40.3372C68.8734 39.1143 69.1726 39.2183 71.3908 39.2183C74.2529 39.2183 76.9004 37.5791 76.9004 34.1315V20.738C76.9655 19.6637 77.2795 18.6193 77.8176 17.6872H71.3713L71.5924 17.3425L71.7486 17.1083C72.3405 16.2301 72.939 15.6187 73.9537 15.5601C74.4007 15.5424 74.838 15.6939 75.1781 15.9846C75.5181 16.2752 75.736 16.6835 75.7881 17.1278H76.5882C76.5371 16.7647 76.4099 16.4164 76.2149 16.1059C76.0198 15.7954 75.7613 15.5296 75.4563 15.326L71.0786 12.7761L72.0023 7.46809L72.0543 7.15586ZM64.1184 7.76731L67.3708 8.87965V13.9925L64.964 12.724L64.1184 7.76731ZM64.9185 18.6174C65.3995 19.2429 66.0943 19.669 66.8699 19.8143C66.9513 20.1763 67.1503 20.5011 67.4358 20.738C67.3848 20.9499 67.3763 21.1699 67.411 21.3851C67.4456 21.6003 67.5227 21.8065 67.6376 21.9917C67.7526 22.1768 67.9033 22.3373 68.0808 22.4638C68.2583 22.5903 68.4592 22.6803 68.6718 22.7285C68.7174 22.9556 68.8229 23.1663 68.9773 23.339C69.1317 23.5117 69.3294 23.64 69.5499 23.7107L68.8669 24.4978C68.7619 24.628 68.6258 24.7296 68.4712 24.7932C68.3166 24.8569 68.1484 24.8806 67.9822 24.8621L64.9315 24.5173C65.0616 24.1791 64.7103 23.7823 63.7476 23.9514L64.9445 20.6014L64.2094 19.0402L62.8239 20.2241L62.7198 23.7433L62.1344 23.4505C61.3603 23.1188 61.1326 24.5173 61.8677 24.5238H62.1604C62.1448 24.5893 62.1496 24.658 62.174 24.7208C62.1984 24.7835 62.2413 24.8373 62.297 24.8751C62.262 24.8967 62.2331 24.9268 62.2131 24.9627C62.1931 24.9985 62.1826 25.0389 62.1826 25.08C62.1826 25.1211 62.1931 25.1615 62.2131 25.1974C62.2331 25.2332 62.262 25.2634 62.297 25.2849C62.2569 25.3065 62.2226 25.3374 62.1969 25.3749C62.1711 25.4125 62.1547 25.4556 62.149 25.5008C62.1433 25.5459 62.1484 25.5918 62.164 25.6346C62.1795 25.6774 62.2051 25.7158 62.2385 25.7468C62.1863 25.831 62.1541 25.9261 62.1443 26.0246C62.1345 26.1232 62.1474 26.2228 62.1819 26.3156C62.2164 26.4085 62.2716 26.4923 62.3435 26.5605C62.4153 26.6288 62.5017 26.6797 62.5962 26.7095C63.032 26.8266 63.3052 26.3517 63.3963 26.059L68.1449 27.5291C68.4386 27.6337 68.7563 27.6512 69.0597 27.5797C69.3632 27.5081 69.6396 27.3505 69.8556 27.1258L71.0916 26.0395C70.9962 26.3345 71.0093 26.6539 71.1285 26.9402C71.2478 27.2264 71.4654 27.4606 71.7421 27.6006C71.7026 27.9069 71.6852 28.2156 71.69 28.5243H59.3308V20.7185C59.304 19.9877 59.1477 19.2675 58.8689 18.5914L64.9185 18.6174ZM70.0248 21.5836C69.8969 21.8325 69.8362 22.1105 69.8488 22.39C69.8613 22.6695 69.9467 22.9409 70.0963 23.1773L69.8947 23.379C69.0035 23.2684 68.6522 21.9414 68.6522 21.9414C68.6431 22.0583 68.6431 22.1758 68.6522 22.2927C68.3894 22.1993 68.1657 22.0202 68.017 21.7842C67.8683 21.5482 67.8034 21.2691 67.8326 20.9917C68.0355 21.1029 68.2552 21.1798 68.4831 21.2194L68.5417 20.8291C68.2819 20.7951 68.0375 20.6867 67.8378 20.5171C67.6382 20.3474 67.4918 20.1237 67.4163 19.8729H67.3318H67.6635C68.0111 19.8735 68.3571 19.8253 68.6913 19.7298C68.8306 19.9178 69.0069 20.0754 69.2094 20.1929C69.4119 20.3104 69.6362 20.3852 69.8687 20.4128C69.7969 20.8055 69.8515 21.2109 70.0248 21.5706V21.5836ZM71.3257 25.0833C71.2326 25.2064 71.1621 25.3452 71.1176 25.4931L70.6232 25.9484C70.6438 25.581 70.5793 25.2138 70.4349 24.8754C70.2905 24.537 70.07 24.2364 69.7906 23.997L70.3175 23.4766L70.4216 23.5806C70.3828 23.7374 70.3755 23.9003 70.4001 24.0599C70.4246 24.2195 70.4805 24.3727 70.5646 24.5106C70.6487 24.6485 70.7592 24.7684 70.8898 24.8633C71.0205 24.9583 71.1686 25.0264 71.3257 25.0637V25.0833ZM68.9515 24.8621L69.3613 24.4653C69.644 24.7001 69.8644 25.001 70.0029 25.3415C70.1413 25.6819 70.1935 26.0513 70.1549 26.4168L69.7125 26.8266C69.6278 26.9085 69.5339 26.9806 69.4328 27.0412C69.5321 26.6674 69.5408 26.2753 69.4582 25.8975C69.3756 25.5196 69.2041 25.1669 68.958 24.8686L68.9515 24.8621ZM68.0798 25.2069C68.2326 25.2261 68.3877 25.2036 68.5287 25.1418C68.7288 25.4491 68.8501 25.801 68.8819 26.1663C68.9137 26.5316 68.8549 26.8992 68.7108 27.2364C68.5037 27.2347 68.2979 27.2041 68.0993 27.1453L67.9432 27.0998C68.2132 26.5048 68.2572 25.8319 68.0668 25.2069H68.0798ZM67.0325 25.0768L67.6115 25.1483C67.7162 25.7542 67.6203 26.3777 67.3383 26.9241L66.6878 26.729C66.9833 26.2291 67.1131 25.6484 67.0586 25.0703L67.0325 25.0768ZM65.8356 24.9337L66.5317 25.0182C66.5842 25.5679 66.4709 26.1207 66.2064 26.6054L65.4974 26.3972C65.771 25.9611 65.8902 25.4456 65.8356 24.9337ZM63.006 24.745C62.954 24.7704 62.896 24.7812 62.8383 24.7761C62.7806 24.771 62.7253 24.7503 62.6785 24.7162C62.6317 24.6821 62.595 24.6359 62.5725 24.5825C62.55 24.5291 62.5425 24.4706 62.5507 24.4133C62.722 24.3214 62.9146 24.2766 63.1089 24.2835C63.3031 24.2904 63.4921 24.3486 63.6565 24.4523C63.8256 24.5629 63.9687 24.8686 64.2029 25.0572C64.1577 25.36 64.0859 25.6582 63.9883 25.9484C63.8646 25.942 63.7454 25.9004 63.6446 25.8286C63.5438 25.7567 63.4655 25.6576 63.4191 25.5429C63.3726 25.4281 63.3599 25.3025 63.3824 25.1807C63.4048 25.059 63.4616 24.9462 63.5459 24.8556C63.483 24.7751 63.3938 24.7194 63.294 24.698C63.1941 24.6766 63.0899 24.6909 62.9995 24.7385L63.006 24.745ZM62.5442 26.0395C62.6856 26.0959 62.8347 26.131 62.9865 26.1436C62.9835 26.1788 62.9731 26.2131 62.956 26.2441C62.9389 26.2752 62.9156 26.3023 62.8874 26.3237C62.8592 26.3452 62.8268 26.3605 62.7924 26.3687C62.7579 26.3768 62.7221 26.3777 62.6873 26.3712C62.6548 26.3606 62.6249 26.3433 62.5996 26.3202C62.5744 26.2972 62.5543 26.2691 62.5408 26.2377C62.5272 26.2063 62.5205 26.1724 62.5211 26.1382C62.5217 26.104 62.5296 26.0704 62.5442 26.0395ZM61.8937 24.1726C61.8563 24.1539 61.8265 24.1228 61.8092 24.0847C61.792 24.0465 61.7884 24.0036 61.7991 23.9632C61.8098 23.9227 61.8341 23.8872 61.8679 23.8625C61.9017 23.8379 61.943 23.8256 61.9848 23.8278C62.1799 23.8278 62.4401 24.0555 62.7003 24.1661C62.4332 24.2098 62.1608 24.2098 61.8937 24.1661V24.1726ZM62.5442 25.5256C62.6808 25.6622 63.1036 25.6102 63.1036 25.6102V25.6947C62.9215 25.9419 62.4076 25.8313 62.5247 25.5256H62.5442ZM63.0906 25.2459C62.7849 25.3695 62.4791 25.2003 62.5767 25.0052C62.7133 25.1353 63.1101 25.0703 63.1101 25.0703L63.0906 25.2459ZM63.5329 21.7333L62.954 23.8408L63.1491 20.4388L64.0468 19.6712L64.5021 20.673L63.3508 23.9774L63.6565 21.7528C63.6565 21.5967 63.5589 21.5771 63.5329 21.7528V21.7333ZM63.624 24.2832C63.8999 24.2649 64.1771 24.278 64.4501 24.3222C64.5867 24.3807 64.4956 24.6019 64.32 24.5824C64.0783 24.5069 63.845 24.4067 63.624 24.2832ZM64.6322 24.797L65.3348 24.8816C65.379 25.3512 65.2792 25.8232 65.0486 26.2346L64.3981 26.0395C64.5552 25.6224 64.6474 25.1836 64.6713 24.7385L64.6322 24.797ZM75.9962 34.0925C76.0274 34.8126 75.8563 35.527 75.5022 36.1547C75.1481 36.7825 74.6252 37.2984 73.9927 37.6442L74.4416 36.7335H74.0057L73.4333 37.9044C72.786 38.1435 72.1004 38.2626 71.4103 38.2556C69.1271 38.2556 68.5222 38.3467 67.6765 39.1923C66.8244 38.3532 66.2259 38.2556 63.9427 38.2556C63.2554 38.2621 62.5724 38.1454 61.9262 37.9109L62.4986 36.74H62.0563L61.5489 37.7677C61.4319 37.7092 61.3148 37.6507 61.1977 37.5856L61.614 36.7465H61.1847L60.8724 37.397C60.3709 37.0198 59.9677 36.5272 59.6971 35.961C59.4265 35.3948 59.2963 34.7717 59.3178 34.1445V29.0122H75.9572L75.9962 34.0925ZM76.4581 18.5784C76.1744 19.2532 76.0157 19.9739 75.9897 20.7055V28.5113H75.0791C74.7239 27.9847 74.4661 27.3987 74.318 26.781C74.2405 27.0726 74.2248 27.3771 74.2719 27.675C74.3189 27.973 74.4277 28.2578 74.5912 28.5113H73.4203C73.1606 27.9466 72.979 27.3492 72.8804 26.7355C72.5291 27.1323 72.7503 28.2121 72.9715 28.5113H72.1974C72.1762 28.122 72.2135 27.7317 72.308 27.3535C71.9047 27.2754 71.4689 27.0607 71.4689 26.6119C71.5395 26.6906 71.6295 26.7495 71.7299 26.7826C71.8303 26.8157 71.9377 26.8219 72.0413 26.8005L72.373 26.5404C71.2737 26.5729 71.2282 25.376 72.0933 24.8101C71.2282 24.8101 70.5777 24.3222 70.8964 23.3985C70.7506 23.305 70.6249 23.1833 70.5267 23.0405C70.4285 22.8978 70.3598 22.7368 70.3247 22.5672C70.2895 22.3975 70.2886 22.2226 70.322 22.0525C70.3554 21.8825 70.4224 21.7209 70.5191 21.5771C70.3574 21.3581 70.2561 21.1003 70.2253 20.8298C70.1944 20.5592 70.2352 20.2853 70.3435 20.0355C69.8958 20.0401 69.464 19.8697 69.1401 19.5606H69.0686C69.5856 19.3519 70.0356 19.0054 70.3695 18.5589L76.4581 18.5784ZM73.1471 14.8186C72.2429 14.9747 71.4689 16.0805 70.8314 17.0758L70.7598 17.1929H70.1093V17.3099C70.0378 18.0775 69.3092 19.1183 67.7025 19.1183C67.0955 19.1379 66.5003 18.9472 66.0178 18.5784C65.7146 18.3414 65.4883 18.02 65.3673 17.6547C65.3309 17.5427 65.3069 17.4271 65.2957 17.3099V17.1929H64.6453L64.4826 17.1278C63.8321 16.1326 63.0711 15.0332 62.1734 14.8706L64.6257 13.4461L67.6505 15.0723L70.6622 13.4331L73.1471 14.8186ZM70.3305 12.685L67.9237 13.9534V8.87965L71.1761 7.76731L70.3305 12.685ZM67.6505 8.31372L64.0728 6.90867C64.372 6.19314 65.7771 5.6077 67.644 5.6077C69.5109 5.6077 70.8964 6.21916 71.2152 6.90867L67.6505 8.31372Z" fill="#656565"/>
<path fill-rule="evenodd" clip-rule="evenodd" d="M75.5799 23.6322V23.2419C74.383 23.2419 74.1033 21.7979 74.1033 21.7979C74.0406 22.0197 74.0319 22.2533 74.0779 22.4792C74.124 22.7051 74.2234 22.9167 74.368 23.0963C74.5126 23.2759 74.698 23.4182 74.9089 23.5115C75.1197 23.6047 75.3498 23.6461 75.5799 23.6322Z" fill="#656565"/>
<path fill-rule="evenodd" clip-rule="evenodd" d="M74.064 26.0653L73.9404 25.6945C72.9192 25.9547 72.3923 24.335 72.3923 24.335C72.3218 24.5697 72.3151 24.8189 72.3729 25.057C72.4307 25.2952 72.551 25.5136 72.7213 25.6898C72.8915 25.8661 73.1057 25.9938 73.3417 26.0597C73.5777 26.1257 73.827 26.1276 74.064 26.0653Z" fill="#656565"/>
<path fill-rule="evenodd" clip-rule="evenodd" d="M74.8064 24.5566C73.5835 24.7517 73.0826 23.3271 73.0826 23.3271C73.0454 23.5132 73.0467 23.7049 73.0866 23.8903C73.1264 24.0758 73.204 24.2511 73.3143 24.4054C73.4247 24.5597 73.5656 24.6897 73.7283 24.7873C73.891 24.8849 74.0719 24.9481 74.26 24.9729C74.2144 25.1755 74.2285 25.387 74.3006 25.5817C74.3728 25.7764 74.4999 25.9461 74.6665 26.07C74.8332 26.194 75.0322 26.2669 75.2394 26.28C75.4467 26.2931 75.6533 26.2458 75.8342 26.1438L75.7171 25.7925C75.5545 25.8547 75.3759 25.8618 75.2089 25.8125C75.0419 25.7633 74.8957 25.6604 74.7929 25.5199C74.6901 25.3794 74.6364 25.2089 74.64 25.0349C74.6436 24.8608 74.7044 24.6927 74.8129 24.5566" fill="#656565"/>
<path fill-rule="evenodd" clip-rule="evenodd" d="M74.0447 20.4896V20.0994C72.4314 19.7676 72.568 18.6553 72.568 18.6553C72.5055 18.8766 72.4968 19.1096 72.5425 19.3349C72.5882 19.5603 72.6871 19.7715 72.8309 19.9509C72.9747 20.1303 73.1593 20.2728 73.3693 20.3665C73.5792 20.4602 73.8086 20.5024 74.0381 20.4896" fill="#656565"/>
<path fill-rule="evenodd" clip-rule="evenodd" d="M63.8065 36.7725L63.2275 37.9433H63.6634L64.2423 36.7725H63.8065Z" fill="#656565"/>
<path fill-rule="evenodd" clip-rule="evenodd" d="M64.6776 36.7725L64.0986 37.9433H64.541L65.1134 36.7725H64.6776Z" fill="#656565"/>
<path fill-rule="evenodd" clip-rule="evenodd" d="M68.1776 36.7725L67.5986 37.9433H68.0345L68.6134 36.7725H68.1776Z" fill="#656565"/>
<path fill-rule="evenodd" clip-rule="evenodd" d="M69.0555 36.7725L68.4766 37.9433H68.9124L69.4848 36.7725H69.0555Z" fill="#656565"/>
<path fill-rule="evenodd" clip-rule="evenodd" d="M67.3055 36.7725L66.7266 37.9433H67.1624L67.7413 36.7725H67.3055Z" fill="#656565"/>
<path fill-rule="evenodd" clip-rule="evenodd" d="M72.4121 37.9433H72.8479L73.4269 36.7725H72.991L72.4121 37.9433Z" fill="#656565"/>
<path fill-rule="evenodd" clip-rule="evenodd" d="M65.5555 36.7725L64.9766 37.9433H65.4124L65.9913 36.7725H65.5555Z" fill="#656565"/>
<path fill-rule="evenodd" clip-rule="evenodd" d="M66.4276 36.7725L65.8486 37.9433H66.291L66.8634 36.7725H66.4276Z" fill="#656565"/>
<path fill-rule="evenodd" clip-rule="evenodd" d="M64.45 30.4619C64.4133 30.4553 64.3754 30.46 64.3416 30.4756C64.3077 30.4911 64.2793 30.5167 64.2605 30.5488C64.2416 30.581 64.233 30.6182 64.2359 30.6554C64.2388 30.6925 64.2531 30.7279 64.2767 30.7567C64.3004 30.7855 64.3324 30.8064 64.3683 30.8165C64.4042 30.8266 64.4423 30.8254 64.4775 30.8131C64.5127 30.8008 64.5433 30.778 64.5651 30.7478C64.587 30.7175 64.599 30.6813 64.5996 30.644C64.6033 30.6002 64.5897 30.5566 64.5617 30.5226C64.5338 30.4886 64.4937 30.4668 64.45 30.4619Z" fill="#656565"/>
<path fill-rule="evenodd" clip-rule="evenodd" d="M67.6503 3.99341C69.0895 3.95425 70.5017 4.38844 71.6703 5.22933C71.8539 4.2829 72.2064 3.37727 72.7111 2.55583L71.267 2.71846L70.5124 1.11176L69.0619 1.86632L67.6503 0.467773L66.2452 1.86632L64.7817 1.11176L64.0206 2.71846L62.583 2.55583C63.089 3.37663 63.4416 4.2825 63.6238 5.22933C64.7942 4.38707 66.2089 3.95282 67.6503 3.99341ZM64.2808 3.34292L64.9703 1.88583L66.2713 2.53632L67.6503 1.18331L69.0619 2.57535L70.3628 1.92486L71.0133 3.38195L71.8589 3.25186C71.638 3.65295 71.4593 4.07586 71.3255 4.5138C70.2002 3.88544 68.9327 3.55556 67.6438 3.55556C66.3549 3.55556 65.0874 3.88544 63.962 4.5138C63.8287 4.07571 63.6499 3.65276 63.4286 3.25186L64.2808 3.34292Z" fill="#656565"/>
<path fill-rule="evenodd" clip-rule="evenodd" d="M69.1212 1.11884C69.1716 1.12329 69.2224 1.11773 69.2707 1.10246C69.319 1.08719 69.3637 1.06252 69.4024 1.02986C69.4411 0.997214 69.473 0.957228 69.4962 0.912212C69.5193 0.867197 69.5334 0.81804 69.5375 0.767574C69.487 0.497136 69.3902 0.237455 69.2513 0C69.2513 0 68.7894 0.49437 68.7764 0.702525C68.7691 0.802291 68.8011 0.900954 68.8655 0.977499C68.9299 1.05404 69.0216 1.10242 69.1212 1.11233" fill="#656565"/>
<path fill-rule="evenodd" clip-rule="evenodd" d="M71.4817 1.97768C71.5716 2.02355 71.6759 2.0322 71.772 2.00176C71.8682 1.97133 71.9485 1.90426 71.9956 1.81506C72.0536 1.54797 72.0646 1.27282 72.0282 1.00195C72.0282 1.00195 71.4167 1.27516 71.3191 1.4638C71.275 1.55393 71.2672 1.65762 71.2975 1.75332C71.3278 1.84902 71.3938 1.92937 71.4817 1.97768Z" fill="#656565"/>
<path fill-rule="evenodd" clip-rule="evenodd" d="M66.1676 1.11917C66.2683 1.11086 66.3617 1.06317 66.4275 0.986445C66.4932 0.909721 66.5261 0.810156 66.5189 0.709361C66.5189 0.494701 66.044 0.00683594 66.044 0.00683594C65.9055 0.244458 65.8087 0.504076 65.7578 0.77441C65.7661 0.875119 65.8138 0.968489 65.8905 1.03425C65.9673 1.10002 66.0668 1.13287 66.1676 1.12567" fill="#656565"/>
<path fill-rule="evenodd" clip-rule="evenodd" d="M63.8001 1.97768C63.8882 1.92947 63.9539 1.84867 63.983 1.7526C64.0122 1.65653 64.0026 1.55285 63.9562 1.4638C63.8587 1.27516 63.2472 1.00195 63.2472 1.00195C63.2128 1.27319 63.226 1.54836 63.2862 1.81506C63.3089 1.85985 63.3403 1.89965 63.3785 1.93216C63.4168 1.96466 63.4611 1.9892 63.509 2.00435C63.5569 2.01949 63.6073 2.02494 63.6572 2.02036C63.7072 2.01578 63.7558 2.00127 63.8001 1.97768Z" fill="#656565"/>
<path fill-rule="evenodd" clip-rule="evenodd" d="M92.1866 14.9876C92.6795 14.7755 93.0696 14.3785 93.2729 13.8818C91.9719 13.6932 88.5829 12.2686 85.7793 13.433C86.8266 12.4377 87.7698 12.3076 87.8609 10.8766C87.9743 10.9828 88.1107 11.0615 88.2594 11.1067C88.4081 11.1519 88.5651 11.1623 88.7185 11.1371C88.8719 11.112 89.0174 11.052 89.1439 10.9617C89.2704 10.8714 89.3744 10.7533 89.448 10.6164C89.1618 9.76424 88.4268 10.4538 88.3292 10.2196C88.2316 9.98541 89.2464 10.3237 89.4806 9.21133C88.6545 8.92512 88.4073 9.60162 88.2577 9.4455C88.108 9.28939 88.7846 9.00968 88.2967 8.14453C87.4381 8.64541 87.8869 9.21783 87.7047 9.27638C87.5226 9.33492 87.6592 8.67143 86.703 8.70395C86.6119 9.72521 87.6007 9.75774 87.4315 9.92036C87.2624 10.083 86.9827 9.33492 86.2607 9.73172C86.2487 9.90373 86.2788 10.0761 86.3484 10.2338C86.4181 10.3916 86.5252 10.5299 86.6604 10.6369C86.7956 10.744 86.9548 10.8164 87.1244 10.8479C87.2939 10.8795 87.4685 10.8692 87.6332 10.818C87.5226 12.3857 86.085 12.119 85.0312 13.8623C87.3014 15.0267 88.3227 17.0562 89.7213 18.4547C90.2165 17.9201 90.6367 17.3205 90.9702 16.6724C91.1407 16.8439 91.3434 16.98 91.5666 17.0729C91.7899 17.1658 92.0293 17.2136 92.2712 17.2136C92.513 17.2136 92.7524 17.1658 92.9757 17.0729C93.1989 16.98 93.4017 16.8439 93.5721 16.6724C93.0518 16.139 93.0322 15.7357 92.2386 15.0072L92.1866 14.9876ZM90.04 15.2934C90.2086 15.6946 90.272 16.1322 90.2242 16.5648C90.1764 16.9973 90.019 17.4105 89.7668 17.7652C89.0932 16.3054 88.0888 15.0225 86.8331 14.0184C86.6249 13.8883 86.9437 13.6476 87.5226 13.5761C89.2724 13.2443 91.315 13.9859 92.2907 14.2266C91.9182 14.5293 91.4667 14.719 90.9897 14.773C91.5964 15.2435 92.1311 15.8001 92.5769 16.4252C91.8874 16.5943 91.5036 16.165 90.027 15.2739" fill="#656565"/>
<path fill-rule="evenodd" clip-rule="evenodd" d="M75.4177 41.4232V39.5107C73.5766 40.3239 71.6096 40.8146 69.6023 40.9613L69.4917 41.6443C69.6999 41.6443 69.9601 41.6964 70.3048 41.7224C68.5179 41.9679 66.7058 41.9679 64.9188 41.7224C65.2636 41.7224 65.5238 41.6769 65.7319 41.6443L65.6213 40.9613C63.6272 40.8112 61.6735 40.3206 59.845 39.5107V41.4232L57.8936 42.2493C59.5496 43.083 61.2956 43.7247 63.0974 44.1617L62.8633 44.9618C66.0281 45.8533 69.3777 45.8533 72.5425 44.9618L72.3083 44.1617C74.1102 43.7246 75.8561 43.083 77.5122 42.2493L75.4177 41.4232ZM58.9343 42.2948L60.2873 41.7484V40.1872C61.4737 40.6241 62.6943 40.9613 63.9366 41.1955L63.169 43.6999C61.7137 43.3694 60.2951 42.8944 58.9343 42.2818V42.2948ZM67.6509 45.1765C66.2013 45.1674 64.7579 44.9862 63.3511 44.6366L64.1642 42.0346C66.4705 42.4204 68.8247 42.4204 71.131 42.0346L71.9441 44.6366C70.5371 44.9854 69.0939 45.1667 67.6443 45.1765H67.6509ZM72.1197 43.7129L71.3456 41.1955C72.5883 40.9571 73.8089 40.6155 74.9948 40.1742V41.7354L76.3479 42.2818C74.9878 42.8962 73.569 43.3713 72.1132 43.6999" fill="#656565"/>
<path fill-rule="evenodd" clip-rule="evenodd" d="M44.3367 16.646C44.6706 17.2938 45.0907 17.8934 45.5856 18.4284C46.9842 17.0298 48.0119 15.0003 50.2756 13.8359C49.2023 12.0731 47.7648 12.3658 47.6737 10.7917C47.8379 10.84 48.0113 10.8481 48.1792 10.8153C48.3472 10.7825 48.5048 10.7097 48.6388 10.6032C48.7727 10.4967 48.8791 10.3595 48.9489 10.2032C49.0186 10.047 49.0498 9.87619 49.0397 9.70535C48.3177 9.30855 48.064 10.0956 47.8688 9.89399C47.6737 9.69234 48.695 9.69885 48.5974 8.67758C47.6477 8.67758 47.8233 9.32807 47.5956 9.25001C47.368 9.17195 47.8623 8.59952 47.0037 8.11816C46.5158 9.01584 47.1793 9.29554 47.0427 9.41914C46.9061 9.54273 46.6459 8.89875 45.8198 9.18496C46.041 10.2908 47.1208 9.83545 46.9647 10.1932C46.8085 10.551 46.132 9.73788 45.8458 10.59C45.9187 10.7268 46.0221 10.8449 46.148 10.9352C46.2739 11.0255 46.419 11.0856 46.5719 11.1107C46.7248 11.1359 46.8814 11.1255 47.0296 11.0803C47.1778 11.0351 47.3137 10.9564 47.4265 10.8502C47.5176 12.2878 48.4608 12.4049 49.5081 13.4066C46.7045 12.2422 43.2959 13.6733 42.0145 13.8555C42.2186 14.35 42.6087 14.7448 43.1008 14.9548C42.3072 15.6898 42.2877 16.0931 41.7998 16.62C41.7998 16.62 42.8601 17.7844 44.4018 16.62L44.3367 16.646ZM42.8146 16.3989C43.2603 15.7716 43.7975 15.2147 44.4083 14.7466C43.931 14.6893 43.4798 14.4975 43.1073 14.1937C44.083 13.9335 46.132 13.1985 47.8753 13.5432C48.4478 13.6213 48.773 13.8555 48.5649 13.9856C47.3067 14.9888 46.2999 16.2717 45.6247 17.7324C45.3731 17.3774 45.216 16.9642 45.1682 16.5318C45.1204 16.0993 45.1834 15.6618 45.3515 15.2605C43.8749 16.1517 43.4911 16.5615 42.8016 16.4119" fill="#656565"/>
<path fill-rule="evenodd" clip-rule="evenodd" d="M66.4141 15.5797V16.4254C66.527 16.3193 66.6619 16.2393 66.8091 16.191C66.9563 16.1427 67.1124 16.1272 67.2662 16.1457V17.3621C67.2626 17.6627 67.1844 17.9578 67.0385 18.2207H68.2549C68.1071 17.9583 68.0266 17.6633 68.0208 17.3621V16.1392C68.1746 16.1202 68.3308 16.1355 68.4781 16.1838C68.6254 16.2322 68.7602 16.3124 68.8729 16.4189V15.5732H66.4141V15.5797Z" fill="#656565"/>
<path fill-rule="evenodd" clip-rule="evenodd" d="M55.7981 33.3897C56.4486 32.8498 57.0405 32.5831 57.0145 31.2821C55.9933 31.8025 53.1116 31.7765 51.8952 30.1112C51.5504 29.6364 51.8952 29.4022 52.2465 29.773C53.0726 30.7097 54.6077 30.2869 55.1606 30.0137C55.0693 29.6585 54.8904 29.332 54.6402 29.0639C54.8484 28.8558 55.4403 28.5501 55.5639 28.0232C55.0514 27.8686 54.5236 27.7705 53.9898 27.7304C54.1492 27.5892 54.2624 27.4032 54.3146 27.1966C54.3669 26.9901 54.3556 26.7726 54.2825 26.5726C53.027 26.9564 51.4854 26.436 51.1276 25.9741C50.7698 25.5123 51.1276 25.0895 51.4268 25.3952C52.0773 26.0457 55.1281 26.8002 56.273 25.6619C55.8664 25.5495 55.5163 25.2898 55.2907 24.9334C56.351 24.8293 57.1967 24.2048 57.2422 23.4242C56.537 23.472 55.8301 23.3608 55.1736 23.099C55.4097 23.0489 55.6272 22.9342 55.8018 22.7676C55.9764 22.6011 56.1013 22.3892 56.1624 22.1558C54.2109 22.0387 54.0743 20.6011 54.0613 20.3604C55.3233 21.089 57.5479 20.7637 56.969 18.9749C55.9217 18.9164 54.8614 17.2186 57.7496 15.6639C60.3515 14.2459 63.3568 12.7107 63.0901 10.1933C62.9209 8.58013 60.2604 7.4808 59.9287 6.66119C58.8229 7.18808 58.6277 7.79954 59.0961 8.82731C59.0961 8.82731 56.6242 9.0745 56.4291 7.52634C56.4287 7.18004 56.5056 6.83802 56.6542 6.52519C56.8027 6.21236 57.0192 5.9366 57.2877 5.71799C57.008 5.71799 55.1476 5.21711 54.5882 6.73274C53.5474 6.02371 52.6367 6.04973 51.9537 6.79779C53.0726 7.44828 53.7686 9.7445 55.6225 10.421C54.3215 11.1365 52.1749 10.8373 50.926 8.63867C49.7486 10.4145 49.0721 12.1708 51.5765 14.0442C46.9775 16.1388 47.023 20.1328 43.0161 22.0387C43.4194 23.125 44.278 23.125 45.3643 22.9559C43.634 25.2001 45.1106 27.5548 42.3721 28.511C42.6323 29.4282 43.1461 30.1568 44.1544 29.8901C43.8682 30.3389 43.6795 30.3259 43.2307 30.8203C44.7268 31.7635 46.4831 31.0805 46.8995 28.0557C46.971 27.5158 47.7126 27.854 47.4589 28.3809C45.7546 31.9066 50.0608 34.5606 48.5387 37.143C49.8852 37.0844 50.9065 36.9804 51.4659 36.5315C51.7452 37.019 51.8763 37.5774 51.8432 38.1382C52.1218 38.1126 52.3823 37.9885 52.5778 37.7882C52.7733 37.588 52.891 37.3246 52.9099 37.0454C53.3978 38.4635 55.1346 39.9856 57.9187 39.9856C56.5071 37.9041 57.8927 35.764 55.7981 33.3897ZM53.0466 35.9916L52.4546 36.9999C52.2202 36.3634 51.9375 35.7458 51.609 35.1525C51.1341 36.1412 50.3731 36.1607 49.6575 36.1607C49.8071 33.7735 46.8344 31.3992 48.1354 28.7062C48.2021 28.5781 48.2429 28.438 48.2554 28.2942C48.268 28.1503 48.252 28.0053 48.2085 27.8676C48.165 27.7298 48.0948 27.602 48.0019 27.4914C47.909 27.3808 47.7952 27.2897 47.667 27.2231C45.6765 26.2148 46.6002 30.4039 44.6097 30.534C44.8836 30.0473 45.079 29.5205 45.1887 28.9729C44.7659 29.0835 43.7576 29.7274 43.3023 28.9013C43.7676 28.6473 44.1637 28.2833 44.4562 27.8412C44.7487 27.399 44.9287 26.892 44.9805 26.3644C45.0742 25.5906 45.2598 24.8306 45.5334 24.1007C45.9549 23.3593 46.4496 22.662 47.01 22.0192C46.8084 22.0192 44.5772 22.5201 44.0698 22.2859C47.9402 19.9116 47.0686 16.8933 52.962 14.2003C51.4138 13.049 49.8332 12.1318 50.9715 9.93964C52.5847 11.8911 55.655 11.2406 57.3137 10.3104C55.6745 9.98518 53.5669 8.53459 53.0661 6.9344C53.684 6.83682 54.4841 7.50682 54.946 7.81906C55.1671 7.22711 55.2582 6.51808 55.9737 6.38799C55.0175 8.43702 56.9104 9.51032 58.7123 9.51683C58.992 9.51683 60.1629 9.39974 60.1629 9.39974C59.9742 9.01595 59.2197 7.96867 59.7661 7.54585C60.2084 7.96216 60.7353 8.29391 61.2167 8.65818C64.7293 11.3772 59.5449 13.8946 57.4243 15.0395C54.1003 16.8348 54.9915 18.9749 56.377 19.5213C56.377 19.762 56.2209 19.8661 55.9933 19.9441C55.024 20.2694 54.1068 19.5733 53.3328 19.131C53.3783 20.471 53.2872 21.733 54.7703 22.5005L53.7491 22.8713C54.6272 23.5218 54.8939 23.8926 55.9542 24.0292C55.4309 24.2193 54.8783 24.3162 54.3215 24.3154C54.4252 24.7453 54.6011 25.1544 54.8419 25.5253C52.6758 25.7855 51.8106 24.5496 51.1406 24.5951C49.7096 24.6992 49.8006 27.3922 53.3198 27.3922L52.9555 27.9906C53.3589 28.2193 53.7992 28.3756 54.2565 28.4525C54.0223 28.6411 53.8011 28.8948 53.606 29.103L54.1654 29.5843C52.7278 29.8445 52.3245 28.2834 51.3943 29.0509C49.9763 30.1763 53.1051 32.5505 56.1038 32.1993C55.7133 32.5812 55.2912 32.9294 54.8419 33.2401C57.2877 35.5493 56.0778 37.7284 57.0861 39.3221C56.1431 39.2649 55.2431 38.9076 54.5175 38.3026C53.792 37.6976 53.2788 36.8764 53.0531 35.9591" fill="#656565"/>
<path fill-rule="evenodd" clip-rule="evenodd" d="M49.1961 27.535C49.7035 28.0684 50.3214 28.1205 51.4858 28.0489C50.1848 27.8928 49.4823 27.5806 49.0335 26.748C48.9662 26.2801 48.9249 25.8088 48.9099 25.3364C48.9459 23.6765 49.4049 22.0533 50.2434 20.6204C50.2749 21.3894 50.5744 22.1231 51.09 22.6945C51.6056 23.2659 52.3048 23.639 53.0665 23.7492C51.3102 22.9816 50.2824 21.2513 50.8418 19.5796C51.2061 18.9942 51.6224 18.3957 52.0778 17.7778C52.3119 17.485 52.5331 17.1988 52.7282 16.9321C52.4941 17.7843 53.5218 18.6624 54.2114 18.812C53.8406 18.4478 53.034 17.2574 54.8618 15.2734C54.3239 15.5304 53.8138 15.8421 53.3397 16.2036C56.7092 12.5609 59.4803 12.4633 60.7552 10.6289C58.9664 11.8648 54.0878 12.5739 51.8891 11.9234C53.099 12.73 56.0197 12.6584 56.7287 12.5088C54.348 14.818 49.1571 17.2118 48.2724 19.3324C49.094 18.3461 50.208 17.6468 51.4533 17.3354C50.6034 18.5025 49.8754 19.7537 49.2807 21.0692C47.9016 24.068 46.0282 24.107 45.9307 26.5853C46.5812 24.6664 47.8366 24.1785 48.7278 22.9231C48.5605 23.8214 48.4928 24.7355 48.5261 25.6486C48.5487 26.6726 48.7558 27.684 49.1376 28.6344C49.0465 29.8573 49.1376 31.9453 50.5556 33.3244C49.7798 32.1762 49.4027 30.8049 49.4823 29.4215C50.5816 31.542 53.7105 34.4692 55.2261 36.4337C53.7105 33.9033 50.0222 30.9501 49.2091 27.535" fill="#656565"/>
<path fill-rule="evenodd" clip-rule="evenodd" d="M83.8478 17.3611C85.0904 17.6745 86.2017 18.3736 87.0222 19.3581C86.1245 17.231 80.9271 14.8437 78.5659 12.5345C79.2814 12.6841 82.1956 12.7622 83.4055 11.949C81.2133 12.5475 76.3347 11.8645 74.4873 10.6025C75.7883 12.4369 78.5333 12.554 81.9029 16.1772C81.4272 15.8146 80.9149 15.5028 80.3742 15.247C82.2281 17.231 81.428 18.4214 81.0247 18.7857C81.7142 18.636 82.7485 17.7579 82.5143 16.9058C82.7355 17.1725 82.9631 17.4522 83.1648 17.7514C83.6266 18.3628 84.0364 18.9678 84.4007 19.5532C84.9601 21.225 83.9259 22.9553 82.1761 23.7228C82.9371 23.6125 83.6355 23.2391 84.15 22.6676C84.6645 22.0961 84.9626 21.3624 84.9927 20.594C85.8334 22.0264 86.2947 23.6496 86.3327 25.31C86.316 25.7826 86.2725 26.2539 86.2026 26.7216C85.7537 27.5737 85.0317 27.886 83.7502 28.0226C84.9211 28.0941 85.5326 28.0226 86.0399 27.5087C85.2464 30.9172 81.5321 33.8769 80.0229 36.4073C81.5386 34.4559 84.6674 31.5157 85.7667 29.3951C85.8454 30.7784 85.4683 32.1494 84.6934 33.298C86.0985 31.919 86.2026 29.8309 86.1115 28.6015C86.4912 27.6528 86.6983 26.6439 86.723 25.6223C86.7587 24.7091 86.691 23.7947 86.5213 22.8967C87.406 24.1587 88.6874 24.64 89.3184 26.559C89.1948 24.0871 87.3669 24.0481 85.9619 21.0428C85.3681 19.7268 84.6401 18.4755 83.7893 17.3091" fill="#656565"/>
<path fill-rule="evenodd" clip-rule="evenodd" d="M89.8583 22.9822C90.9446 23.1513 91.8098 23.1513 92.2066 22.065C88.2061 20.1591 88.2451 16.1651 83.6462 14.0705C86.1701 12.1971 85.4936 10.4408 84.2967 8.665C83.0542 10.8636 80.9141 11.1629 79.6002 10.4473C81.4475 9.79685 82.1501 7.48762 83.2689 6.82413C82.6119 6.06956 81.6947 6.06956 80.6604 6.72005C80.0945 5.20442 78.2406 5.70529 77.9609 5.70529C78.2299 5.9236 78.4465 6.1993 78.5951 6.51219C78.7437 6.82509 78.8204 7.16726 78.8196 7.51364C78.6244 9.03578 76.1591 8.81462 76.1591 8.81462C76.66 7.78685 76.4388 7.17539 75.3265 6.6485C74.9882 7.46811 72.3342 8.56743 72.1651 10.1806C71.8984 12.7045 74.8841 14.2332 77.5056 15.6512C80.3938 17.2124 79.3335 18.9037 78.2862 18.9622C77.7072 20.7575 79.9254 21.0763 81.1938 20.3477C81.1938 20.5884 81.0247 22.026 79.0928 22.1431C79.1549 22.3753 79.2802 22.5858 79.4548 22.7512C79.6293 22.9165 79.8463 23.0303 80.0815 23.0798C79.425 23.3414 78.7181 23.4525 78.013 23.405C78.0845 24.1856 78.9302 24.8101 79.9644 24.9142C79.7407 25.2709 79.3933 25.5326 78.9887 25.6492C80.1336 26.7876 83.2104 26.0395 83.8348 25.3825C84.121 25.0833 84.4853 25.5061 84.1275 25.9614C83.7698 26.4168 82.2281 26.9502 80.9727 26.5664C80.9042 26.7719 80.8999 26.9933 80.9603 27.2013C81.0207 27.4093 81.143 27.594 81.3109 27.7308C80.788 27.7727 80.2712 27.8709 79.7693 28.0235C79.8864 28.5504 80.4848 28.8561 80.693 29.0643C80.4376 29.3225 80.2499 29.6398 80.1466 29.9879C80.706 30.2612 82.2411 30.684 83.0607 29.7473C83.3925 29.3765 83.7568 29.6107 83.4185 30.0855C82.2086 31.7508 79.3204 31.7768 78.2992 31.2564C78.2992 32.5574 78.8326 32.8241 79.5156 33.364C77.4275 35.7708 78.8066 37.9174 77.33 40.0119C80.114 40.0119 81.8834 38.4963 82.3387 37.0717C82.3576 37.351 82.4754 37.6143 82.6709 37.8146C82.8664 38.0148 83.1268 38.1389 83.4055 38.1646C83.3753 37.604 83.5062 37.0464 83.7828 36.5579C84.3487 37.0132 85.3765 37.1173 86.7165 37.1693C85.1943 34.5674 89.5071 31.9329 87.7963 28.4073C87.5426 27.8804 88.2842 27.5421 88.3557 28.082C88.759 31.1068 90.5283 31.7898 92.0309 30.8466C91.5821 30.3522 91.3805 30.3652 91.1073 29.9164C92.1155 30.1831 92.6294 29.4545 92.8896 28.5374C90.1576 27.5746 91.6276 25.2264 89.8974 22.9822H89.8583ZM90.125 28.9862C90.2322 29.5345 90.4277 30.0618 90.704 30.5474C88.7135 30.4173 89.6372 26.2281 87.6467 27.2364C87.3889 27.3686 87.1938 27.5972 87.1037 27.8725C87.0135 28.1477 87.0357 28.4475 87.1653 28.7065C88.4663 31.3995 85.5001 33.7738 85.6692 36.135C84.9341 36.135 84.1731 36.135 83.7177 35.1268C83.3901 35.7206 83.1074 36.3381 82.8721 36.9742L82.2802 35.9659C82.0535 36.8828 81.5401 37.7034 80.8147 38.3082C80.0893 38.9131 79.1898 39.2707 78.2471 39.3289C79.2489 37.7352 78.0455 35.5626 80.4913 33.2469C80.0418 32.9366 79.6196 32.5884 79.2294 32.2061C82.2346 32.5574 85.3635 30.1831 83.9389 29.0578C83.0087 28.3227 82.5989 29.8513 81.1678 29.5912L81.7272 29.1098C81.5321 28.9146 81.3044 28.661 81.0768 28.4593C81.5341 28.3827 81.9744 28.2264 82.3777 27.9975L82.0135 27.399C85.5261 27.399 85.6172 24.706 84.1926 24.6019C83.5421 24.5499 82.6574 25.7858 80.4913 25.5321C80.7294 25.1598 80.9052 24.7511 81.0117 24.3222C80.4549 24.3227 79.9024 24.2259 79.379 24.036C80.4393 23.8994 80.68 23.5481 81.5841 22.8781L80.5629 22.5008C82.046 21.7593 81.9484 20.4713 81.9939 19.1313C81.2199 19.5802 80.3027 20.2697 79.34 19.9444C79.1058 19.8664 78.9562 19.7623 78.9562 19.5216C80.3482 18.9752 81.2329 16.8351 77.9089 15.0398C75.7883 13.8949 70.6039 11.3775 74.1166 8.6585C74.5979 8.28772 75.1183 7.95597 75.5606 7.54617C76.1136 7.96898 75.359 9.01627 75.1703 9.40005C75.1703 9.40005 76.3412 9.51714 76.6144 9.51714C78.4228 9.51714 80.3222 8.43733 79.3595 6.3883C80.0815 6.53791 80.1661 7.22743 80.3807 7.81937C80.8426 7.50714 81.6427 6.83714 82.2606 6.93471C81.7598 8.54141 79.6587 9.98549 78.0065 10.3107C79.6652 11.2149 82.7355 11.8849 84.3487 9.93996C85.4806 12.1321 83.8999 13.0493 82.3517 14.2006C88.2516 16.8872 87.38 19.9054 91.2439 22.2862C90.743 22.5204 88.5053 22.052 88.3037 22.0195C88.8683 22.6605 89.3653 23.358 89.7868 24.101C90.0666 24.8303 90.2588 25.5902 90.3592 26.3647C90.4142 26.8914 90.5955 27.397 90.8877 27.8387C91.1799 28.2803 91.5743 28.645 92.0375 28.9016C91.5821 29.7278 90.5739 29.0838 90.151 28.9732" fill="#656565"/>
<path fill-rule="evenodd" clip-rule="evenodd" d="M62.0044 35.5817L62.8436 34.8662L62.7135 34.6125C62.6224 34.4304 62.6679 34.4174 62.7655 34.3458L63.2078 34.0141C63.2557 33.9783 63.3119 33.9554 63.3711 33.9474C63.4302 33.9395 63.4905 33.9467 63.5461 33.9685L64.8471 34.2808H63.4745C63.3539 34.2761 63.2351 34.312 63.1372 34.3827C63.0393 34.4535 62.968 34.555 62.9346 34.6711L62.8371 34.8662L62.4728 35.6078C62.3882 35.7647 62.3559 35.9446 62.3805 36.1212C62.405 36.2978 62.4852 36.462 62.6094 36.59L62.8631 36.8957L62.3557 37.943H62.7915L63.1493 37.2145C63.448 36.9389 63.6718 36.5919 63.7998 36.2062C63.6502 36.0826 63.5396 35.9915 63.6241 35.8224L63.7868 35.4777C63.8388 35.3606 63.8583 35.315 64.0144 35.3476L65.413 35.6468C65.5173 35.7006 65.6377 35.7144 65.7515 35.6857C65.8653 35.6569 65.9647 35.5876 66.0309 35.4907C66.2196 35.1979 66.2456 35.2305 66.6814 35.276L67.397 35.3541C68.202 35.4576 69.019 35.2979 69.7257 34.8987C69.8558 35.2044 70.1225 35.4321 70.2461 35.6663C70.2916 35.7509 70.2461 35.8745 70.155 36.0306L69.3809 37.943H70.6169L71.3129 36.1932C71.3647 36.0568 71.4445 35.9327 71.5471 35.8289L71.1503 37.943H72.3472L72.6659 35.8484C72.7375 35.3866 72.6659 35.2305 72.4708 35.0418C71.9699 34.619 71.9829 33.7409 71.8203 33.1944C71.9109 33.1426 72.016 33.122 72.1195 33.1359C72.3797 33.1359 72.5748 33.8254 72.8871 34.2547C73.4985 35.1199 74.3377 36.0696 75.3004 34.7296C75.2088 34.5798 75.1043 34.4383 74.9881 34.3068L74.7214 33.9945C74.5653 33.8189 73.8238 32.9733 73.5115 32.6936C73.2254 32.4086 72.8518 32.2281 72.4507 32.1809C72.0496 32.1337 71.6444 32.2226 71.2999 32.4334C70.3242 31.9195 69.2964 32.4334 69.0557 32.4334L67.3774 32.3293C67.3219 32.3272 67.2678 32.3113 67.2201 32.2828C67.1724 32.2544 67.1325 32.2145 67.1042 32.1667L67.4165 32.0626C67.1238 30.8462 66.3887 29.8314 65.1072 29.6558C65.1072 29.6558 65.0292 29.272 64.834 29.2005L64.4503 29.6493C64.3383 29.6649 64.2289 29.6956 64.125 29.7404L62.4858 29.1289L63.7477 30.3583C63.7477 30.3583 63.0972 31.2625 62.8956 31.4381C62.8651 31.4684 62.8409 31.5043 62.8244 31.544C62.8079 31.5836 62.7994 31.6261 62.7994 31.6691C62.7994 31.712 62.8079 31.7545 62.8244 31.7941C62.8409 31.8338 62.8651 31.8697 62.8956 31.9L63.1363 32.2122C63.2599 32.3748 63.3965 32.3683 63.5916 32.2643L63.8583 32.1211C63.9754 32.0236 64.3722 32.2187 64.5088 32.0626C64.4389 32.3832 64.4018 32.7102 64.3982 33.0383L63.2924 32.9082C63.2066 32.8868 63.117 32.8863 63.031 32.9066C62.9449 32.927 62.8651 32.9677 62.798 33.0253L61.8548 33.7474C61.7012 33.8671 61.5953 34.0375 61.556 34.2282C61.5166 34.419 61.5465 34.6174 61.6402 34.7881L62.0044 35.5817ZM71.1112 35.7899L70.3632 37.6308H69.9013L70.6494 35.8484C70.7275 35.6208 70.5778 35.5102 70.3957 35.2565C70.6552 35.4094 70.9272 35.54 71.2088 35.6468C71.1754 35.6925 71.145 35.7403 71.1177 35.7899H71.1112ZM63.9104 31.7959L63.6957 31.9065C63.5461 31.991 63.4745 32.0301 63.3444 31.8675L63.2534 31.7504C63.2251 31.7039 63.213 31.6493 63.2188 31.5952C63.2247 31.5411 63.2483 31.4905 63.2859 31.4511L64.2031 30.3843L63.3574 29.6883L64.4307 30.0851L64.8275 29.5908C64.9446 29.6883 64.9056 29.9745 64.9056 29.9745C65.4103 30.077 65.8627 30.3545 66.1828 30.7579C66.5029 31.1613 66.6703 31.6649 66.6554 32.1797C66.807 32.4056 67.0401 32.5641 67.3059 32.622L69.1728 32.7326C69.485 32.7326 70.2526 32.1407 71.2478 32.7326C71.4878 32.5758 71.7583 32.4716 72.0414 32.4269C72.4445 32.4377 72.8385 32.5493 73.1873 32.7516C73.5362 32.9538 73.8288 33.2403 74.0384 33.5847C74.3897 34.0271 74.871 34.7101 74.871 34.7101C74.6629 34.9573 74.4612 35.0353 74.2921 34.9768C74.1762 34.9084 74.0777 34.814 74.0043 34.7012C73.931 34.5883 73.8848 34.46 73.8693 34.3263C73.7318 33.9914 73.5072 33.6995 73.2188 33.4807C73.3586 33.7917 73.457 34.1198 73.5115 34.4564C72.783 33.7343 72.6464 32.8562 72.1325 32.7326C71.9917 32.7112 71.8478 32.7305 71.7176 32.7881C71.5874 32.8457 71.4763 32.9393 71.3975 33.0578C71.6576 33.6563 71.6381 34.3588 71.9048 34.8077C72.1065 35.1524 72.1455 35.1849 72.2366 35.263C72.4512 35.4191 72.3276 35.6923 72.2951 35.9135L72.0154 37.6438H71.5536L71.8593 35.946C71.9504 35.4321 70.5063 35.4321 69.7582 34.4434C69.1077 35.1849 67.3514 34.9963 66.5839 34.8857C66.4415 34.8342 66.2857 34.834 66.1432 34.8851C66.0007 34.9361 65.8805 35.0353 65.8033 35.1654C65.7057 35.3345 65.5366 35.2825 65.4325 35.263L64.0339 34.9638C63.9899 34.9442 63.9421 34.9343 63.8939 34.9348C63.8456 34.9352 63.798 34.9459 63.7543 34.9663C63.7106 34.9866 63.6717 35.016 63.6402 35.0526C63.6088 35.0892 63.5856 35.1321 63.5721 35.1784L63.2924 35.7574C63.2583 35.8115 63.2447 35.8761 63.2543 35.9394C63.2638 36.0027 63.2958 36.0605 63.3444 36.1021L63.4745 36.2452C63.4077 36.4336 63.2934 36.6016 63.1428 36.7331L62.8371 36.3883C62.7691 36.2949 62.7294 36.1841 62.7225 36.0688C62.7155 35.9535 62.7418 35.8387 62.798 35.7378L63.2534 34.7946C63.2816 34.7285 63.3288 34.6722 63.389 34.6328C63.4492 34.5935 63.5197 34.5728 63.5916 34.5735H65.3219L64.795 33.7083C64.3982 33.0578 65.0552 31.9065 64.9576 31.3601C64.9056 32.0886 64.0209 31.7569 63.8843 31.8544L63.9104 31.7959ZM62.0304 33.975L62.8501 33.3245C62.902 33.2687 62.9658 33.2252 63.0366 33.197C63.1075 33.1689 63.1838 33.1569 63.2599 33.1619L64.4177 33.3115C64.4704 33.5057 64.5538 33.6902 64.6649 33.8579L63.4355 33.5977C63.3669 33.5812 63.2953 33.582 63.2271 33.6002C63.159 33.6183 63.0964 33.6533 63.0452 33.7018L62.4598 34.1442C62.4063 34.1897 62.3715 34.2533 62.3619 34.3229C62.3523 34.3925 62.3686 34.4631 62.4077 34.5214L62.4988 34.7231L62.089 35.0288L61.9329 34.7361C61.7768 34.4239 61.7637 34.1377 62.0239 33.936" fill="#656565"/>
<path fill-rule="evenodd" clip-rule="evenodd" d="M65.5943 11.7544C65.99 12.0048 66.4055 12.2223 66.8367 12.4049V11.878L65.0869 11.2275C65.0869 11.2275 65.0869 11.4422 65.5943 11.787" fill="#656565"/>
<path fill-rule="evenodd" clip-rule="evenodd" d="M66.8372 11.1168V10.5899L64.8857 9.88086C65.1126 10.1043 65.361 10.3048 65.6273 10.4793C66.0232 10.7294 66.4387 10.9469 66.8697 11.1298" fill="#656565"/>
<path fill-rule="evenodd" clip-rule="evenodd" d="M66.8377 9.92041V9.38701L64.665 8.58691C64.665 8.58691 65.0879 8.93167 65.5952 9.27643C65.9906 9.52729 66.4062 9.74486 66.8377 9.92692" fill="#656565"/>
<path fill-rule="evenodd" clip-rule="evenodd" d="M72.9395 17.1281H75.1641C75.0817 16.914 74.9299 16.7336 74.733 16.6157C74.5362 16.4978 74.3055 16.4492 74.0778 16.4776C73.8465 16.4706 73.6179 16.5277 73.417 16.6425C73.2161 16.7573 73.0508 16.9253 72.9395 17.1281Z" fill="#656565"/>
<path fill-rule="evenodd" clip-rule="evenodd" d="M70.617 8.58625L68.4443 9.38635V9.91324C68.8758 9.73119 69.2913 9.51361 69.6868 9.26276C70.1941 8.918 70.6105 8.57324 70.6105 8.57324" fill="#656565"/>
<path fill-rule="evenodd" clip-rule="evenodd" d="M70.1941 11.1946L68.4443 11.8451V12.372C68.8755 12.1893 69.291 11.9717 69.6868 11.7215C70.1941 11.3768 70.1941 11.1621 70.1941 11.1621" fill="#656565"/>
<path fill-rule="evenodd" clip-rule="evenodd" d="M70.4349 9.88117L68.4834 10.5902V11.1171C68.9147 10.9347 69.3302 10.7172 69.7258 10.4666C69.9918 10.2916 70.2401 10.0912 70.4674 9.86816" fill="#656565"/>
<path fill-rule="evenodd" clip-rule="evenodd" d="M61.2045 16.4776C60.9768 16.4492 60.7461 16.4978 60.5493 16.6157C60.3524 16.7336 60.2006 16.914 60.1182 17.1281H62.3428C62.2314 16.9253 62.0662 16.7573 61.8653 16.6425C61.6644 16.5277 61.4357 16.4706 61.2045 16.4776Z" fill="#656565"/>
<path fill-rule="evenodd" clip-rule="evenodd" d="M72.0549 7.16855C72.0549 5.91962 69.9539 4.80078 67.6381 4.80078C65.3224 4.80078 63.2213 5.91962 63.2213 7.16855L63.2669 7.47428L64.1906 12.7822L59.8453 15.3322C59.5375 15.5331 59.2757 15.797 59.0772 16.1064C58.8788 16.4159 58.7481 16.7639 58.694 17.1275H59.494C59.5508 16.6844 59.7725 16.2789 60.1149 15.992C60.4573 15.7051 60.8952 15.5577 61.3414 15.5793C62.3497 15.6314 62.9481 16.2298 63.5466 17.1275L63.6962 17.3617L63.9174 17.7064H57.4775C58.0175 18.6381 58.3337 19.6825 58.4012 20.7572V34.1312C58.4012 37.5723 61.0487 39.218 63.9109 39.218C66.1225 39.218 66.4217 39.1204 67.6446 40.3369C68.8611 39.1139 69.1603 39.218 71.3784 39.218C74.2406 39.218 76.8881 37.5788 76.8881 34.1312V20.7442C76.9553 19.6694 77.2716 18.625 77.8117 17.6934H71.3719L71.5931 17.3487L71.7492 17.1145C72.3412 16.2363 72.9396 15.6184 73.9544 15.5663C74.4004 15.5484 74.8368 15.6991 75.1767 15.9884C75.5166 16.2777 75.7351 16.6844 75.7887 17.1275H76.5823C76.5312 16.766 76.4046 16.4194 76.2107 16.1101C76.0168 15.8008 75.76 15.5357 75.457 15.3322L71.0792 12.7822L72.0029 7.47428L72.0549 7.16855ZM64.119 7.78001L67.3714 8.89234V14.0052L64.9646 12.7367L64.119 7.78001ZM64.9256 18.6236C65.4074 19.2471 66.1022 19.671 66.8771 19.814C66.958 20.1762 67.1571 20.5011 67.443 20.7377C67.3919 20.9496 67.3835 21.1696 67.4181 21.3848C67.4528 21.6 67.5298 21.8062 67.6448 21.9913C67.7598 22.1765 67.9104 22.337 68.0879 22.4635C68.2655 22.59 68.4663 22.68 68.6789 22.7282C68.724 22.9545 68.8285 23.1647 68.9817 23.3374C69.1349 23.51 69.3312 23.6387 69.5506 23.7104L68.9001 24.4975C68.7943 24.6267 68.6581 24.7277 68.5037 24.7913C68.3493 24.8548 68.1815 24.8791 68.0154 24.8618L64.9646 24.517C65.0947 24.1788 64.7435 23.7885 63.7808 23.9576L64.9776 20.6011L64.2231 19.079L62.8375 20.2628L62.7335 23.782L62.1415 23.4893C61.3674 23.1575 61.1398 24.5561 61.8748 24.5626H62.1675C62.152 24.6281 62.1567 24.6967 62.1811 24.7595C62.2055 24.8222 62.2484 24.876 62.3041 24.9138C62.2692 24.9354 62.2403 24.9655 62.2203 25.0014C62.2002 25.0372 62.1897 25.0776 62.1897 25.1187C62.1897 25.1598 62.2002 25.2002 62.2203 25.2361C62.2403 25.2719 62.2692 25.3021 62.3041 25.3236C62.2641 25.3452 62.2298 25.3761 62.204 25.4137C62.1783 25.4512 62.1619 25.4943 62.1562 25.5395C62.1504 25.5847 62.1556 25.6305 62.1711 25.6733C62.1867 25.7161 62.2122 25.7545 62.2456 25.7855C62.1935 25.8697 62.1613 25.9648 62.1515 26.0634C62.1417 26.1619 62.1545 26.2615 62.189 26.3543C62.2235 26.4472 62.2788 26.531 62.3506 26.5992C62.4224 26.6675 62.5089 26.7184 62.6034 26.7482C63.0392 26.8653 63.3124 26.3904 63.4035 26.0977L68.152 27.5678C68.4456 27.6732 68.7635 27.6912 69.0672 27.6196C69.3708 27.548 69.6472 27.3899 69.8628 27.1645L71.0987 26.0782C71.0033 26.3732 71.0164 26.6927 71.1357 26.9789C71.2549 27.2651 71.4725 27.4994 71.7492 27.6394C71.7102 27.9457 71.6928 28.2543 71.6972 28.5631H59.3379V20.7572C59.311 20.0264 59.1547 19.3062 58.8761 18.6301L64.9256 18.6236ZM70.0319 21.5833C69.9034 21.832 69.8424 22.1101 69.8549 22.3897C69.8675 22.6694 69.9532 22.9408 70.1035 23.177L69.9018 23.3787C69.0107 23.2681 68.6594 21.9411 68.6594 21.9411C68.6495 22.0602 68.6495 22.1798 68.6594 22.2989C68.3966 22.2055 68.1728 22.0264 68.0242 21.7904C67.8755 21.5544 67.8105 21.2753 67.8398 20.9979C68.0423 21.1099 68.2622 21.1868 68.4903 21.2256L68.5488 20.8353C68.2888 20.802 68.044 20.694 67.8442 20.5242C67.6444 20.3545 67.4982 20.1303 67.4235 19.8791H67.3389H67.6707C68.0164 19.8771 68.3602 19.8268 68.6919 19.7294C68.8343 19.9115 69.012 20.063 69.2143 20.1748C69.4166 20.2865 69.6394 20.3563 69.8693 20.3799C69.8004 20.7734 69.8573 21.1785 70.0319 21.5378V21.5833ZM71.3329 25.0504C71.2408 25.1742 71.1704 25.3128 71.1247 25.4602L70.6304 25.9156C70.6504 25.5482 70.5858 25.1812 70.4414 24.8429C70.297 24.5045 70.0768 24.2038 69.7978 23.9641L70.3246 23.4437L70.4287 23.5478C70.3891 23.7046 70.3811 23.8677 70.4052 24.0277C70.4294 24.1876 70.4852 24.3411 70.5694 24.4792C70.6536 24.6173 70.7645 24.7372 70.8956 24.832C71.0267 24.9267 71.1754 24.9943 71.3329 25.0309V25.0504ZM68.9521 24.8683L69.3619 24.465C69.6442 24.7001 69.8643 25.0011 70.0027 25.3415C70.1411 25.6818 70.1936 26.051 70.1555 26.4164L69.7067 26.8263C69.6197 26.9084 69.5237 26.9804 69.4205 27.0409C69.5211 26.6677 69.5312 26.2757 69.4497 25.8978C69.3682 25.5199 69.1976 25.1669 68.9521 24.8683ZM68.074 25.2065C68.2267 25.2255 68.3817 25.203 68.5228 25.1415C68.7224 25.4478 68.8434 25.7985 68.8752 26.1627C68.907 26.5269 68.8485 26.8933 68.7049 27.2296C68.4978 27.2293 68.2917 27.1986 68.0935 27.1385L67.9374 27.093C68.2085 26.4983 68.2525 25.8249 68.061 25.2L68.074 25.2065ZM67.0267 25.0699L67.6056 25.1415C67.7109 25.7474 67.6149 26.3711 67.3324 26.9173L66.6819 26.7222C66.973 26.223 67.1004 25.6452 67.0462 25.0699H67.0267ZM65.8363 24.9333L66.5323 25.0179C66.5848 25.5676 66.4716 26.1204 66.2071 26.6051L65.498 26.3969C65.7722 25.961 65.8913 25.4454 65.8363 24.9333ZM63.0067 24.7447C62.9546 24.7701 62.8966 24.7809 62.8389 24.7758C62.7812 24.7707 62.726 24.75 62.6791 24.7159C62.6323 24.6818 62.5957 24.6355 62.5732 24.5822C62.5506 24.5288 62.5431 24.4703 62.5513 24.4129C62.7227 24.3211 62.9153 24.2763 63.1095 24.2832C63.3038 24.29 63.4927 24.3483 63.6572 24.452C63.8263 24.5626 63.9694 24.8683 64.2036 25.0569C64.1597 25.36 64.0878 25.6583 63.9889 25.9481C63.8653 25.9417 63.7461 25.9001 63.6452 25.8282C63.5444 25.7564 63.4662 25.6573 63.4197 25.5425C63.3733 25.4278 63.3606 25.3022 63.383 25.1804C63.4055 25.0587 63.4622 24.9459 63.5466 24.8553C63.4837 24.7748 63.3945 24.719 63.2946 24.6976C63.1947 24.6762 63.0905 24.6906 63.0002 24.7382L63.0067 24.7447ZM62.5448 26.0392C62.6869 26.0924 62.8358 26.1253 62.9872 26.1367C62.9841 26.172 62.9737 26.2063 62.9567 26.2373C62.9396 26.2683 62.9162 26.2955 62.888 26.3169C62.8598 26.3383 62.8275 26.3537 62.793 26.3618C62.7585 26.37 62.7228 26.3709 62.6879 26.3644C62.6556 26.3546 62.6259 26.3379 62.6006 26.3155C62.5754 26.2931 62.5553 26.2655 62.5417 26.2347C62.5281 26.2038 62.5213 26.1703 62.5219 26.1366C62.5224 26.1028 62.5302 26.0696 62.5448 26.0392ZM61.8943 24.1658C61.8569 24.147 61.8271 24.116 61.8099 24.0779C61.7927 24.0397 61.7891 23.9968 61.7998 23.9564C61.8105 23.9159 61.8347 23.8804 61.8686 23.8557C61.9024 23.8311 61.9436 23.8188 61.9854 23.821C62.1806 23.821 62.4473 24.0487 62.7009 24.1593C62.4339 24.2038 62.1614 24.2038 61.8943 24.1593V24.1658ZM62.5448 25.5188C62.6879 25.6554 63.1107 25.6033 63.1107 25.6033V25.6879C62.9286 25.9351 62.4147 25.8245 62.5318 25.5188H62.5448ZM63.1042 25.2391C62.805 25.3562 62.4928 25.1935 62.5904 24.9984C62.7335 25.1285 63.1238 25.0634 63.1238 25.0634L63.1042 25.2391ZM63.5466 21.7264L62.9676 23.834L63.1628 20.432L64.0605 19.6644L64.5158 20.6661L63.4035 23.9576L63.7092 21.7329C63.7092 21.5768 63.6116 21.5638 63.5856 21.7329L63.5466 21.7264ZM63.6246 24.2829C63.9006 24.2652 64.1777 24.2783 64.4508 24.3219C64.5874 24.3804 64.4963 24.6016 64.3207 24.5756C64.0792 24.5023 63.8459 24.4042 63.6246 24.2829ZM64.6329 24.7967L65.3354 24.8813C65.3853 25.3673 65.2806 25.8567 65.0362 26.2798L64.3857 26.0847C64.545 25.6679 64.6393 25.2291 64.6654 24.7837L64.6329 24.7967ZM75.9904 34.1377C76.0216 34.8578 75.8504 35.5722 75.4963 36.1999C75.1422 36.8277 74.6193 37.3437 73.9869 37.6894L74.4357 36.7787H73.9999L73.4275 37.9496C72.7801 38.1889 72.0946 38.3079 71.4045 38.3008C69.1212 38.3008 68.5163 38.3919 67.6707 39.2375C66.825 38.3984 66.2201 38.3008 63.9369 38.3008C63.242 38.307 62.552 38.1857 61.9008 37.9431L62.4798 36.7722H62.057L61.5496 37.8C61.426 37.7414 61.3154 37.6829 61.1983 37.6178L61.6146 36.7787H61.1853L60.8796 37.4292C60.3781 37.052 59.9749 36.5594 59.7043 35.9932C59.4336 35.427 59.3035 34.8039 59.3249 34.1767V29.0119H75.9579L75.9904 34.1377ZM76.4522 18.6301C76.1701 19.3051 76.0136 20.026 75.9904 20.7572V28.5631H75.0797C74.7243 28.0366 74.4665 27.4505 74.3186 26.8328C74.2412 27.1243 74.2255 27.4288 74.2725 27.7268C74.3196 28.0247 74.4283 28.3096 74.5918 28.5631H73.421C73.1609 27.9985 72.9792 27.401 72.8811 26.7872C72.5298 27.184 72.751 28.2638 72.9721 28.5631H72.198C72.1777 28.1738 72.215 27.7836 72.3086 27.4052C71.8988 27.3271 71.4695 27.119 71.4695 26.6636C71.5412 26.7407 71.6315 26.7979 71.7318 26.8298C71.8321 26.8617 71.9389 26.8672 72.0419 26.8458L72.3737 26.5856C71.2809 26.6181 71.2288 25.4212 72.094 24.8553C71.2223 24.8553 70.5783 24.3674 70.8906 23.4437C70.7447 23.3502 70.619 23.2285 70.5208 23.0857C70.4226 22.943 70.354 22.7821 70.3188 22.6124C70.2837 22.4427 70.2828 22.2678 70.3162 22.0978C70.3496 21.9277 70.4166 21.7661 70.5133 21.6224C70.3516 21.4033 70.2502 21.1456 70.2194 20.875C70.1886 20.6045 70.2294 20.3306 70.3377 20.0807C69.89 20.0853 69.4582 19.915 69.1343 19.6059H69.0627C69.5799 19.3974 70.03 19.0509 70.3637 18.6041L76.4522 18.6301ZM73.1413 14.8703C72.2371 15.0264 71.463 16.1323 70.832 17.1275L70.7605 17.2446H70.11V17.3617C70.0384 18.1292 69.3099 19.17 67.7032 19.17C67.0962 19.1891 66.5012 18.9984 66.0184 18.6301C65.7167 18.3918 65.4907 18.0709 65.3679 17.7064C65.3314 17.5945 65.3074 17.4789 65.2964 17.3617V17.2446H64.6459L64.4833 17.1275C63.8328 16.1323 63.0717 15.0329 62.1741 14.8703L64.6264 13.4457L67.6511 15.0785L70.6629 13.4392L73.1413 14.8703ZM70.3312 12.7367L67.9243 14.0052V8.88584L71.1768 7.7735L70.3312 12.7367ZM67.6511 8.32642L64.0735 6.91486C64.3792 6.19933 65.7777 5.61389 67.6446 5.61389C69.5115 5.61389 70.8971 6.22535 71.2093 6.91486L67.6511 8.32642Z" fill="#656565"/>
<path fill-rule="evenodd" clip-rule="evenodd" d="M75.5801 23.6654V23.2751C74.3767 23.2751 74.1035 21.8311 74.1035 21.8311C74.0395 22.0524 74.0296 22.286 74.0747 22.512C74.1198 22.738 74.2186 22.9498 74.3627 23.1296C74.5068 23.3095 74.692 23.452 74.9028 23.5453C75.1135 23.6385 75.3436 23.6797 75.5736 23.6654" fill="#656565"/>
<path fill-rule="evenodd" clip-rule="evenodd" d="M74.064 26.0653L73.9469 25.6945C72.9256 25.9547 72.3922 24.335 72.3922 24.335C72.3239 24.5695 72.3188 24.8179 72.3774 25.055C72.436 25.2921 72.5563 25.5095 72.726 25.6852C72.8957 25.8608 73.1089 25.9885 73.3438 26.0553C73.5788 26.122 73.8272 26.1255 74.064 26.0653Z" fill="#656565"/>
<path fill-rule="evenodd" clip-rule="evenodd" d="M74.8064 24.5624C73.5835 24.7576 73.0826 23.333 73.0826 23.333C73.0454 23.519 73.0467 23.7107 73.0866 23.8962C73.1264 24.0817 73.204 24.257 73.3143 24.4113C73.4247 24.5656 73.5656 24.6955 73.7283 24.7932C73.891 24.8908 74.0719 24.9539 74.26 24.9787C74.2154 25.1805 74.23 25.3908 74.3019 25.5844C74.3739 25.7781 74.5002 25.9468 74.6657 26.0704C74.8312 26.1941 75.0289 26.2673 75.235 26.2813C75.4412 26.2954 75.6469 26.2496 75.8277 26.1496L75.7106 25.7984C75.548 25.8606 75.3694 25.8676 75.2024 25.8184C75.0354 25.7691 74.8892 25.6663 74.7864 25.5258C74.6836 25.3852 74.6299 25.2148 74.6335 25.0407C74.6371 24.8666 74.6979 24.6986 74.8064 24.5624Z" fill="#656565"/>
<path fill-rule="evenodd" clip-rule="evenodd" d="M74.0453 20.4975V20.1072C72.4321 19.7754 72.5622 18.6631 72.5622 18.6631C72.4997 18.8844 72.4909 19.1174 72.5366 19.3427C72.5824 19.5681 72.6812 19.7793 72.825 19.9587C72.9688 20.1381 73.1534 20.2806 73.3634 20.3743C73.5734 20.468 73.8027 20.5103 74.0323 20.4975" fill="#656565"/>
<path fill-rule="evenodd" clip-rule="evenodd" d="M63.8065 36.7725L63.2275 37.9498H63.6634L64.2423 36.7725H63.8065Z" fill="#656565"/>
<path fill-rule="evenodd" clip-rule="evenodd" d="M64.6779 36.7725L64.1055 37.9498H64.5413L65.1137 36.7725H64.6779Z" fill="#656565"/>
<path fill-rule="evenodd" clip-rule="evenodd" d="M68.1776 36.7725L67.5986 37.9498H68.0345L68.6134 36.7725H68.1776Z" fill="#656565"/>
<path fill-rule="evenodd" clip-rule="evenodd" d="M69.0555 36.7725L68.4766 37.9498H68.9124L69.4848 36.7725H69.0555Z" fill="#656565"/>
<path fill-rule="evenodd" clip-rule="evenodd" d="M67.3055 36.7725L66.7266 37.9498H67.1624L67.7413 36.7725H67.3055Z" fill="#656565"/>
<path fill-rule="evenodd" clip-rule="evenodd" d="M72.4121 37.9498H72.8479L73.4269 36.7725H72.991L72.4121 37.9498Z" fill="#656565"/>
<path fill-rule="evenodd" clip-rule="evenodd" d="M65.5555 36.7725L64.9766 37.9498H65.4124L65.9913 36.7725H65.5555Z" fill="#656565"/>
<path fill-rule="evenodd" clip-rule="evenodd" d="M66.4276 36.7725L65.8486 37.9498H66.291L66.8634 36.7725H66.4276Z" fill="#656565"/>
<path fill-rule="evenodd" clip-rule="evenodd" d="M64.4497 30.4687C64.4143 30.4634 64.3782 30.4691 64.3461 30.4849C64.314 30.5007 64.2875 30.5259 64.2701 30.5572C64.2528 30.5884 64.2454 30.6243 64.2489 30.6598C64.2525 30.6954 64.2668 30.7291 64.29 30.7563C64.3132 30.7835 64.3441 30.803 64.3787 30.8122C64.4133 30.8214 64.4498 30.8197 64.4835 30.8076C64.5171 30.7954 64.5462 30.7733 64.5669 30.7441C64.5876 30.7149 64.5989 30.6801 64.5993 30.6444C64.6012 30.6016 64.5869 30.5597 64.5591 30.5271C64.5313 30.4945 64.4922 30.4736 64.4497 30.4687Z" fill="#656565"/>
<path fill-rule="evenodd" clip-rule="evenodd" d="M67.6503 4.00708C69.0887 3.96604 70.5009 4.39792 71.6703 5.2365C71.8536 4.28999 72.2062 3.38431 72.7111 2.563L71.267 2.72562L70.5124 1.11892L69.0619 1.87349L67.6503 0.481445L66.2452 1.87999L64.7817 1.11892L64.0271 2.72562L62.583 2.563C63.0892 3.38367 63.4419 4.28959 63.6238 5.2365C64.7952 4.39699 66.2097 3.96509 67.6503 4.00708ZM64.2808 3.3566L64.9573 1.90601L66.2583 2.5565L67.6503 1.19698L69.0619 2.58902L70.3628 1.93853L71.0133 3.39562L71.8589 3.26553C71.6367 3.66599 71.4579 4.08904 71.3255 4.52747C70.2002 3.89911 68.9327 3.56923 67.6438 3.56923C66.3549 3.56923 65.0874 3.89911 63.962 4.52747C63.8288 4.08935 63.65 3.66639 63.4286 3.26553L64.2808 3.3566Z" fill="#656565"/>
<path fill-rule="evenodd" clip-rule="evenodd" d="M69.1212 1.13186C69.222 1.14093 69.3223 1.10978 69.4003 1.04521C69.4783 0.980632 69.5276 0.887863 69.5375 0.787105C69.4871 0.516632 69.3903 0.25693 69.2513 0.0195312C69.2513 0.0195312 68.7894 0.513901 68.7764 0.722057C68.7691 0.821822 68.8011 0.920485 68.8655 0.997031C68.9299 1.07358 69.0216 1.12196 69.1212 1.13186Z" fill="#656565"/>
<path fill-rule="evenodd" clip-rule="evenodd" d="M71.4819 1.99005C71.5262 2.01363 71.5748 2.02814 71.6248 2.03272C71.6748 2.0373 71.7252 2.03186 71.773 2.01671C71.8209 2.00157 71.8653 1.97702 71.9035 1.94452C71.9418 1.91202 71.9731 1.87221 71.9958 1.82743C72.0549 1.55828 72.0659 1.2808 72.0283 1.00781C72.0283 1.00781 71.4169 1.28102 71.3193 1.46966C71.2734 1.5595 71.2648 1.66378 71.2952 1.75995C71.3257 1.85612 71.3927 1.93644 71.4819 1.98354" fill="#656565"/>
<path fill-rule="evenodd" clip-rule="evenodd" d="M66.1676 1.13186C66.2683 1.12356 66.3617 1.07586 66.4275 0.999141C66.4932 0.922417 66.5261 0.822852 66.5189 0.722057C66.5189 0.513901 66.044 0.0195312 66.044 0.0195312C65.9055 0.257154 65.8087 0.516772 65.7578 0.787105C65.7677 0.886644 65.8161 0.97838 65.8926 1.04278C65.9692 1.10717 66.0679 1.13914 66.1676 1.13186Z" fill="#656565"/>
<path fill-rule="evenodd" clip-rule="evenodd" d="M63.8001 1.99038C63.8881 1.94217 63.9538 1.86136 63.983 1.76529C64.0122 1.66923 64.0025 1.56555 63.9562 1.47649C63.8586 1.28785 63.2471 1.01465 63.2471 1.01465C63.2114 1.288 63.2246 1.56554 63.2862 1.83426C63.3088 1.87905 63.3402 1.91886 63.3785 1.95136C63.4167 1.98386 63.4611 2.0084 63.5089 2.02355C63.5568 2.03869 63.6072 2.04414 63.6572 2.03956C63.7072 2.03498 63.7557 2.02047 63.8001 1.99688" fill="#656565"/>
<path fill-rule="evenodd" clip-rule="evenodd" d="M92.1804 14.9935C92.6738 14.782 93.064 14.3847 93.2667 13.8877C91.9658 13.7055 88.5767 12.2745 85.7731 13.4388C86.8204 12.4436 87.7636 12.3135 87.8547 10.8824C87.9681 10.9874 88.104 11.065 88.252 11.1095C88.4 11.1539 88.5562 11.164 88.7086 11.1389C88.8611 11.1138 89.0058 11.0542 89.1318 10.9646C89.2577 10.8751 89.3616 10.758 89.4354 10.6222C89.1491 9.7701 88.4206 10.4596 88.3165 10.2254C88.2124 9.99127 89.2337 10.323 89.4614 9.21719C88.6353 8.93097 88.3881 9.60748 88.2385 9.45136C88.0888 9.29525 88.7654 9.01554 88.2775 8.15039C87.4189 8.65127 87.8677 9.22369 87.6856 9.28224C87.5034 9.34078 87.64 8.67728 86.6903 8.70981C86.5992 9.73107 87.5815 9.7636 87.4189 9.92622C87.2562 10.0888 86.9635 9.34078 86.248 9.73758C86.236 9.90959 86.2661 10.0819 86.3357 10.2397C86.4054 10.3974 86.5125 10.5358 86.6477 10.6428C86.7829 10.7498 86.9421 10.8222 87.1117 10.8538C87.2812 10.8854 87.4558 10.8751 87.6205 10.8239C87.5099 12.3916 86.0723 12.1249 85.0186 13.8682C87.2888 15.0325 88.31 17.0621 89.7086 18.4606C90.2034 17.9256 90.6235 17.326 90.9575 16.6783C91.128 16.8498 91.3307 16.9859 91.5539 17.0787C91.7772 17.1716 92.0167 17.2194 92.2585 17.2194C92.5003 17.2194 92.7397 17.1716 92.963 17.0787C93.1863 16.9859 93.389 16.8498 93.5594 16.6783C93.0391 16.1449 93.0195 15.7416 92.2259 15.013L92.1804 14.9935ZM90.0273 15.2992C90.1959 15.7004 90.2593 16.1381 90.2115 16.5706C90.1637 17.0032 90.0063 17.4164 89.7541 17.7711C89.0811 16.3109 88.0766 15.0279 86.8204 14.0243C86.6188 13.8942 86.931 13.66 87.5099 13.582C89.2532 13.2502 91.2958 13.9918 92.2715 14.2324C91.8988 14.5349 91.4474 14.7245 90.9705 14.7788C91.578 15.2485 92.1128 15.8053 92.5577 16.4311C91.8747 16.6002 91.4844 16.1644 90.0078 15.2797" fill="#656565"/>
<path fill-rule="evenodd" clip-rule="evenodd" d="M75.4177 41.4297V39.5107C73.5771 40.3254 71.6098 40.8161 69.6023 40.9613L69.4917 41.6443C69.6999 41.6443 69.9601 41.6964 70.3048 41.7224C68.5177 41.9655 66.7059 41.9655 64.9188 41.7224C65.2636 41.7224 65.5238 41.6769 65.7319 41.6443L65.6213 40.9613C63.627 40.8125 61.6731 40.3218 59.845 39.5107V41.4232L57.8936 42.2493C59.5495 43.0833 61.2955 43.725 63.0974 44.1617L62.8633 44.9618C66.0275 45.8577 69.3783 45.8577 72.5425 44.9618L72.3083 44.1617C74.1101 43.7244 75.856 43.0827 77.5122 42.2493L75.4177 41.4297ZM58.9343 42.2948L60.2873 41.7484V40.1872C61.4739 40.6232 62.6945 40.9605 63.9366 41.1955L63.169 43.6934C61.7135 43.3639 60.2948 42.8888 58.9343 42.2753V42.2948ZM67.6509 45.1765C66.2035 45.167 64.7623 44.9858 63.3576 44.6366L64.1707 42.0346C66.4768 42.422 68.8314 42.422 71.1375 42.0346L71.9506 44.6366C70.5436 44.9855 69.1004 45.1667 67.6509 45.1765ZM72.1197 43.7129L71.3456 41.1955C72.5881 40.9562 73.8087 40.6146 74.9948 40.1742V41.7354L76.3479 42.2818C74.9879 42.8965 73.5691 43.3717 72.1132 43.6999" fill="#656565"/>
<path fill-rule="evenodd" clip-rule="evenodd" d="M44.3438 16.6525C44.6789 17.2977 45.0989 17.8949 45.5928 18.4284C46.9913 17.0298 48.0191 15.0003 50.2828 13.8359C49.2095 12.0731 47.7719 12.3658 47.6808 10.7917C47.8451 10.8416 48.019 10.8508 48.1876 10.8187C48.3563 10.7865 48.5146 10.7139 48.6489 10.607C48.7833 10.5002 48.8897 10.3623 48.959 10.2052C49.0283 10.0482 49.0585 9.87663 49.0469 9.70535C48.3248 9.30855 48.0711 10.0956 47.876 9.89399C47.6808 9.69234 48.7021 9.69885 48.6045 8.67758C47.6548 8.67758 47.8304 9.32807 47.6028 9.25001C47.3751 9.17195 47.8695 8.59952 47.0108 8.11816C46.523 9.01584 47.1865 9.29554 47.0499 9.41914C46.9133 9.54273 46.6531 8.89875 45.8269 9.18496C46.0481 10.2908 47.1279 9.83545 46.9718 10.1932C46.8157 10.551 46.1392 9.73788 45.853 10.59C45.9258 10.7268 46.0292 10.8449 46.1552 10.9352C46.2811 11.0255 46.4261 11.0856 46.579 11.1107C46.7319 11.1359 46.8885 11.1255 47.0368 11.0803C47.185 11.0351 47.3208 10.9564 47.4336 10.8502C47.5247 12.2878 48.4679 12.4049 49.5152 13.4066C46.7116 12.2422 43.3096 13.6733 42.0216 13.8555C42.2273 14.3513 42.6198 14.7462 43.1144 14.9548C42.2818 15.7224 42.2818 16.1257 41.7744 16.6591C41.7744 16.6591 42.8347 17.8234 44.3764 16.6591L44.3438 16.6525ZM42.7892 16.4379C43.235 15.8107 43.7721 15.2538 44.3829 14.7856C43.9058 14.7276 43.4548 14.536 43.0819 14.2327C44.0576 13.9725 46.1067 13.2375 47.85 13.5822C48.4224 13.6603 48.7476 13.8945 48.5395 14.0246C47.2735 15.0276 46.2599 16.313 45.5798 17.7779C45.3315 17.4214 45.1764 17.0085 45.1287 16.5767C45.081 16.145 45.1421 15.7081 45.3066 15.306C43.8365 16.1972 43.4462 16.607 42.7566 16.4574" fill="#656565"/>
<path fill-rule="evenodd" clip-rule="evenodd" d="M66.4141 15.5856V16.4312C66.5268 16.3248 66.6616 16.2446 66.8089 16.1962C66.9562 16.1479 67.1123 16.1326 67.2662 16.1515V17.3679C67.2609 17.6692 67.1804 17.9643 67.032 18.2266H68.2484C68.1003 17.9642 68.0198 17.6692 68.0143 17.3679V16.145C68.1681 16.1256 68.3244 16.1407 68.4718 16.189C68.6192 16.2374 68.7539 16.3179 68.8664 16.4247V15.5791H66.4141V15.5856Z" fill="#656565"/>
</svg>
